<svg width="58" height="67" viewBox="0 0 58 67" fill="none" xmlns="http://www.w3.org/2000/svg">
<path d="M58 62.506L52.5517 60.5956L53.6214 66.2692L58 62.506ZM51.9331 63.0039C50.5098 63.1858 49.1573 63.3161 47.8722 63.3973L47.9353 64.3953C49.2434 64.3126 50.6172 64.1803 52.0599 63.9958L51.9331 63.0039ZM43.8485 63.4908C42.4252 63.4611 41.1018 63.3598 39.8715 63.1926L39.7368 64.1835C41.0084 64.3563 42.37 64.4602 43.8277 64.4906L43.8485 63.4908ZM36.0044 62.3683C34.6639 61.9625 33.4688 61.4552 32.4029 60.859L31.9147 61.7317C33.0481 62.3657 34.3104 62.9003 35.7147 63.3254L36.0044 62.3683ZM29.2623 58.5156C28.323 57.5919 27.5327 56.5577 26.8688 55.4285L26.0067 55.9353C26.7117 57.1343 27.5549 58.239 28.5611 59.2286L29.2623 58.5156ZM25.2559 51.8374C24.846 50.6166 24.5282 49.326 24.2847 47.9787L23.3007 48.1566C23.5513 49.5431 23.8801 50.8816 24.3079 52.1557L25.2559 51.8374ZM23.7759 43.9943C23.6683 42.6866 23.6078 41.3457 23.5801 39.9821L22.5803 40.0024C22.6083 41.3819 22.6696 42.7439 22.7793 44.0763L23.7759 43.9943ZM23.5795 35.9439C23.6014 34.6006 23.6408 33.248 23.6848 31.8946L22.6854 31.8621C22.6413 33.2173 22.6017 34.5762 22.5797 35.9276L23.5795 35.9439ZM23.8177 27.8402C23.8587 26.4698 23.8909 25.1091 23.9004 23.7699L22.9005 23.7628C22.891 25.0913 22.859 26.4436 22.8182 27.8103L23.8177 27.8402ZM23.8414 19.6834C23.784 18.2824 23.6824 16.9178 23.5178 15.6044L22.5256 15.7288C22.6859 17.0084 22.7857 18.3444 22.8422 19.7243L23.8414 19.6834ZM22.7428 11.5536C22.3665 10.1674 21.8756 8.86728 21.238 7.67936L20.3569 8.15224C20.9521 9.26121 21.4174 10.4881 21.7777 11.8156L22.7428 11.5536ZM18.7099 4.34095C17.7231 3.41178 16.5605 2.63142 15.1961 2.02221L14.7884 2.93533C16.0534 3.50017 17.1215 4.21884 18.0244 5.069L18.7099 4.34095ZM11.2412 0.849174C9.99186 0.631577 8.62688 0.513222 7.13626 0.501045L7.12809 1.50101C8.57114 1.5128 9.88092 1.62731 11.0696 1.83434L11.2412 0.849174ZM3.04502 0.705572C2.36131 0.774995 1.6559 0.862326 0.928121 0.968052L1.07188 1.95766C1.78625 1.85389 2.47739 1.76835 3.14604 1.70046L3.04502 0.705572Z" fill="#404040"/>
</svg>
