<svg width="58" height="67" viewBox="0 0 58 67" fill="none" xmlns="http://www.w3.org/2000/svg">
<path d="M58 4.49399L52.5517 6.40437L53.6214 0.730829L58 4.49399ZM51.9331 3.99611C50.5098 3.81416 49.1573 3.68394 47.8722 3.6027L47.9353 2.60469C49.2434 2.68738 50.6172 2.81975 52.0599 3.00419L51.9331 3.99611ZM43.8485 3.5092C42.4252 3.5389 41.1018 3.64018 39.8715 3.8074L39.7368 2.81651C41.0084 2.64368 42.37 2.53984 43.8277 2.50942L43.8485 3.5092ZM36.0044 4.6317C34.6639 5.03751 33.4688 5.54477 32.4029 6.141L31.9147 5.26827C33.0481 4.63426 34.3104 4.09971 35.7147 3.6746L36.0044 4.6317ZM29.2623 8.48437C28.323 9.40805 27.5327 10.4423 26.8688 11.5715L26.0067 11.0647C26.7117 9.86572 27.5549 8.76095 28.5611 7.77138L29.2623 8.48437ZM25.2559 15.1626C24.846 16.3834 24.5282 17.674 24.2847 19.0213L23.3007 18.8434C23.5513 17.4569 23.8801 16.1184 24.3079 14.8443L25.2559 15.1626ZM23.7759 23.0057C23.6683 24.3134 23.6078 25.6543 23.5801 27.0179L22.5803 26.9976C22.6083 25.6181 22.6696 24.2561 22.7793 22.9237L23.7759 23.0057ZM23.5795 31.0561C23.6014 32.3994 23.6408 33.752 23.6848 35.1054L22.6854 35.1379C22.6413 33.7827 22.6017 32.4238 22.5797 31.0724L23.5795 31.0561ZM23.8177 39.1598C23.8587 40.5302 23.8909 41.8909 23.9004 43.2301L22.9005 43.2372C22.891 41.9087 22.859 40.5564 22.8182 39.1897L23.8177 39.1598ZM23.8414 47.3166C23.784 48.7176 23.6824 50.0822 23.5178 51.3956L22.5256 51.2712C22.6859 49.9916 22.7857 48.6556 22.8422 47.2757L23.8414 47.3166ZM22.7428 55.4464C22.3665 56.8326 21.8756 58.1327 21.238 59.3206L20.3569 58.8478C20.9521 57.7388 21.4174 56.5119 21.7777 55.1844L22.7428 55.4464ZM18.7099 62.6591C17.7231 63.5882 16.5605 64.3686 15.1961 64.9778L14.7884 64.0647C16.0534 63.4998 17.1215 62.7812 18.0244 61.931L18.7099 62.6591ZM11.2412 66.1508C9.99186 66.3684 8.62688 66.4868 7.13626 66.499L7.12809 65.499C8.57114 65.4872 9.88092 65.3727 11.0696 65.1657L11.2412 66.1508ZM3.04502 66.2944C2.36131 66.225 1.6559 66.1377 0.928121 66.0319L1.07188 65.0423C1.78625 65.1461 2.47739 65.2316 3.14604 65.2995L3.04502 66.2944Z" fill="#404040"/>
</svg>
