<svg width="277" height="91" viewBox="0 0 277 91" fill="none" xmlns="http://www.w3.org/2000/svg">
<ellipse cx="25.5137" cy="25" rx="25.5137" ry="25" fill="#6366F1"/>
<rect x="13.4296" y="11.1846" width="4.02848" height="27.3684" fill="white"/>
<path d="M20.1412 11.1846H32.2005C35.1073 11.1846 37.4637 13.541 37.4637 16.4477H20.1412V11.1846Z" fill="white"/>
<path d="M33.7517 19.0796H37.4637V36.1276C37.4637 37.4727 36.3558 38.5631 34.9891 38.5631H33.7517V19.0796Z" fill="white"/>
<path d="M20.1412 33.814H37.4637V36.2494C37.4637 37.5945 36.3558 38.6849 34.9891 38.6849H20.1412V33.814Z" fill="white"/>
<path d="M59.7113 35V20.1H64.5913C66.1379 20.1 67.4779 20.4133 68.6113 21.04C69.7579 21.6533 70.6446 22.52 71.2713 23.64C71.8979 24.76 72.2113 26.06 72.2113 27.54C72.2113 29.0067 71.8979 30.3067 71.2713 31.44C70.6446 32.56 69.7579 33.4333 68.6113 34.06C67.4779 34.6867 66.1379 35 64.5913 35H59.7113ZM62.0713 32.9H64.6313C65.6846 32.9 66.5979 32.68 67.3713 32.24C68.1579 31.8 68.7646 31.18 69.1913 30.38C69.6179 29.58 69.8313 28.6333 69.8313 27.54C69.8313 26.4467 69.6113 25.5067 69.1713 24.72C68.7446 23.92 68.1446 23.3 67.3713 22.86C66.5979 22.42 65.6846 22.2 64.6313 22.2H62.0713V32.9ZM77.5778 35.24C76.8445 35.24 76.1978 35.1133 75.6378 34.86C75.0912 34.5933 74.6645 34.2333 74.3578 33.78C74.0512 33.3133 73.8978 32.7667 73.8978 32.14C73.8978 31.5533 74.0245 31.0267 74.2778 30.56C74.5445 30.0933 74.9512 29.7 75.4978 29.38C76.0445 29.06 76.7312 28.8333 77.5578 28.7L81.3178 28.08V29.86L77.9978 30.44C77.3978 30.5467 76.9578 30.74 76.6778 31.02C76.3978 31.2867 76.2578 31.6333 76.2578 32.06C76.2578 32.4733 76.4112 32.8133 76.7178 33.08C77.0378 33.3333 77.4445 33.46 77.9378 33.46C78.5512 33.46 79.0845 33.3267 79.5378 33.06C80.0045 32.7933 80.3645 32.44 80.6178 32C80.8712 31.5467 80.9978 31.0467 80.9978 30.5V27.72C80.9978 27.1867 80.7978 26.7533 80.3978 26.42C80.0112 26.0733 79.4912 25.9 78.8378 25.9C78.2378 25.9 77.7112 26.06 77.2578 26.38C76.8178 26.6867 76.4912 27.0867 76.2778 27.58L74.3978 26.64C74.5978 26.1067 74.9245 25.64 75.3778 25.24C75.8312 24.8267 76.3578 24.5067 76.9578 24.28C77.5712 24.0533 78.2178 23.94 78.8978 23.94C79.7512 23.94 80.5045 24.1 81.1578 24.42C81.8245 24.74 82.3378 25.1867 82.6978 25.76C83.0712 26.32 83.2578 26.9733 83.2578 27.72V35H81.0978V33.04L81.5578 33.1C81.3045 33.54 80.9778 33.92 80.5778 34.24C80.1912 34.56 79.7445 34.8067 79.2378 34.98C78.7445 35.1533 78.1912 35.24 77.5778 35.24ZM86.0203 35V24.18H88.1803V26.3L87.9203 26.02C88.187 25.34 88.6137 24.8267 89.2003 24.48C89.787 24.12 90.467 23.94 91.2403 23.94C92.0403 23.94 92.747 24.1133 93.3603 24.46C93.9737 24.8067 94.4537 25.2867 94.8003 25.9C95.147 26.5133 95.3203 27.22 95.3203 28.02V35H93.0803V28.62C93.0803 28.0733 92.9803 27.6133 92.7803 27.24C92.5803 26.8533 92.2937 26.56 91.9203 26.36C91.5603 26.1467 91.147 26.04 90.6803 26.04C90.2137 26.04 89.7937 26.1467 89.4203 26.36C89.0603 26.56 88.7803 26.8533 88.5803 27.24C88.3803 27.6267 88.2803 28.0867 88.2803 28.62V35H86.0203ZM103.079 39.4C102.292 39.4 101.566 39.2733 100.899 39.02C100.232 38.7667 99.6591 38.4133 99.1791 37.96C98.6991 37.52 98.3391 37 98.0991 36.4L100.179 35.54C100.366 36.0467 100.706 36.4667 101.199 36.8C101.706 37.1333 102.326 37.3 103.059 37.3C103.632 37.3 104.146 37.1867 104.599 36.96C105.052 36.7467 105.412 36.4267 105.679 36C105.946 35.5867 106.079 35.0867 106.079 34.5V32.06L106.479 32.52C106.106 33.2133 105.586 33.74 104.919 34.1C104.266 34.46 103.526 34.64 102.699 34.64C101.699 34.64 100.799 34.4067 99.9991 33.94C99.1991 33.4733 98.5657 32.8333 98.0991 32.02C97.6457 31.2067 97.4191 30.2933 97.4191 29.28C97.4191 28.2533 97.6457 27.34 98.0991 26.54C98.5657 25.74 99.1924 25.1067 99.9791 24.64C100.766 24.1733 101.666 23.94 102.679 23.94C103.506 23.94 104.239 24.12 104.879 24.48C105.532 24.8267 106.066 25.3333 106.479 26L106.179 26.56V24.18H108.319V34.5C108.319 35.4333 108.092 36.2667 107.639 37C107.199 37.7467 106.586 38.3333 105.799 38.76C105.012 39.1867 104.106 39.4 103.079 39.4ZM102.959 32.54C103.559 32.54 104.092 32.4 104.559 32.12C105.026 31.8267 105.392 31.44 105.659 30.96C105.939 30.4667 106.079 29.9133 106.079 29.3C106.079 28.6867 105.939 28.1333 105.659 27.64C105.379 27.1467 105.006 26.76 104.539 26.48C104.072 26.1867 103.546 26.04 102.959 26.04C102.346 26.04 101.799 26.1867 101.319 26.48C100.839 26.76 100.459 27.1467 100.179 27.64C99.9124 28.12 99.7791 28.6733 99.7791 29.3C99.7791 29.9 99.9124 30.4467 100.179 30.94C100.459 31.4333 100.839 31.8267 101.319 32.12C101.799 32.4 102.346 32.54 102.959 32.54ZM114.325 35.24C113.591 35.24 112.945 35.1133 112.385 34.86C111.838 34.5933 111.411 34.2333 111.105 33.78C110.798 33.3133 110.645 32.7667 110.645 32.14C110.645 31.5533 110.771 31.0267 111.025 30.56C111.291 30.0933 111.698 29.7 112.245 29.38C112.791 29.06 113.478 28.8333 114.305 28.7L118.065 28.08V29.86L114.745 30.44C114.145 30.5467 113.705 30.74 113.425 31.02C113.145 31.2867 113.005 31.6333 113.005 32.06C113.005 32.4733 113.158 32.8133 113.465 33.08C113.785 33.3333 114.191 33.46 114.685 33.46C115.298 33.46 115.831 33.3267 116.285 33.06C116.751 32.7933 117.111 32.44 117.365 32C117.618 31.5467 117.745 31.0467 117.745 30.5V27.72C117.745 27.1867 117.545 26.7533 117.145 26.42C116.758 26.0733 116.238 25.9 115.585 25.9C114.985 25.9 114.458 26.06 114.005 26.38C113.565 26.6867 113.238 27.0867 113.025 27.58L111.145 26.64C111.345 26.1067 111.671 25.64 112.125 25.24C112.578 24.8267 113.105 24.5067 113.705 24.28C114.318 24.0533 114.965 23.94 115.645 23.94C116.498 23.94 117.251 24.1 117.905 24.42C118.571 24.74 119.085 25.1867 119.445 25.76C119.818 26.32 120.005 26.9733 120.005 27.72V35H117.845V33.04L118.305 33.1C118.051 33.54 117.725 33.92 117.325 34.24C116.938 34.56 116.491 34.8067 115.985 34.98C115.491 35.1533 114.938 35.24 114.325 35.24ZM122.767 35V24.18H124.927V26.3L124.667 26.02C124.934 25.34 125.36 24.8267 125.947 24.48C126.534 24.12 127.214 23.94 127.987 23.94C128.787 23.94 129.494 24.1133 130.107 24.46C130.72 24.8067 131.2 25.2867 131.547 25.9C131.894 26.5133 132.067 27.22 132.067 28.02V35H129.827V28.62C129.827 28.0733 129.727 27.6133 129.527 27.24C129.327 26.8533 129.04 26.56 128.667 26.36C128.307 26.1467 127.894 26.04 127.427 26.04C126.96 26.04 126.54 26.1467 126.167 26.36C125.807 26.56 125.527 26.8533 125.327 27.24C125.127 27.6267 125.027 28.0867 125.027 28.62V35H122.767ZM139.606 35.24C138.566 35.24 137.632 34.9933 136.806 34.5C135.992 33.9933 135.346 33.3133 134.866 32.46C134.399 31.6067 134.166 30.6467 134.166 29.58C134.166 28.5133 134.406 27.5533 134.886 26.7C135.366 25.8467 136.012 25.1733 136.826 24.68C137.639 24.1867 138.559 23.94 139.586 23.94C140.452 23.94 141.219 24.1133 141.886 24.46C142.552 24.8067 143.079 25.2867 143.466 25.9L143.126 26.42V19.86H145.366V35H143.226V32.8L143.486 33.22C143.112 33.8733 142.579 34.3733 141.886 34.72C141.192 35.0667 140.432 35.24 139.606 35.24ZM139.826 33.14C140.452 33.14 141.012 32.9867 141.506 32.68C142.012 32.3733 142.406 31.9533 142.686 31.42C142.979 30.8733 143.126 30.26 143.126 29.58C143.126 28.9 142.979 28.2933 142.686 27.76C142.406 27.2267 142.012 26.8067 141.506 26.5C141.012 26.1933 140.452 26.04 139.826 26.04C139.199 26.04 138.632 26.1933 138.126 26.5C137.619 26.8067 137.226 27.2267 136.946 27.76C136.666 28.2933 136.526 28.9 136.526 29.58C136.526 30.26 136.666 30.8733 136.946 31.42C137.226 31.9533 137.612 32.3733 138.106 32.68C138.612 32.9867 139.186 33.14 139.826 33.14Z" fill="white"/>
</svg>
