<svg width="120" height="41" viewBox="0 0 120 41" fill="none" xmlns="http://www.w3.org/2000/svg">
<path d="M30.536 22.55C30.536 24.638 28.88 26.32 26.803 26.32C24.726 26.32 23.07 24.638 23.07 22.55C23.07 20.46 24.726 18.778 26.803 18.778H30.536V22.55ZM34.69 7H30.536V14.659H26.803C22.48 14.659 19 18.169 19 22.549C19 26.929 22.48 30.44 26.803 30.44C31.125 30.44 34.606 26.9 34.606 22.55V14.659L34.69 7ZM76.627 26.204C78.704 26.204 80.387 24.464 80.387 22.317C80.387 20.17 78.704 18.43 76.627 18.43C74.55 18.43 72.866 20.17 72.866 22.317C72.95 24.493 74.635 26.204 76.627 26.204ZM68.852 22.317C68.852 17.821 72.36 14.194 76.711 14.194C81.061 14.194 84.571 17.821 84.571 22.317C84.571 26.814 81.061 30.44 76.711 30.44C72.361 30.44 68.852 26.814 68.852 22.317ZM97.734 22.491C97.734 20.373 96.05 18.604 94.057 18.604C92.064 18.604 90.38 20.374 90.38 22.491V30.44H86.282V22.49C86.282 17.907 89.79 14.193 94.141 14.193C98.491 14.193 102 17.907 102 22.49V30.439H97.902C97.734 30.439 97.734 23.564 97.734 22.491ZM58.8 19.416C58.154 18.981 58.35 18.256 59.445 17.995C60.792 17.647 63.15 17.908 65.143 18.807L67.22 15.935C66.322 15.21 64.33 14.224 61.438 14.05C61.438 14.05 56.554 13.411 54.589 17.096C54.589 17.096 52.877 20.49 56.302 22.636C58.379 23.884 61.999 24.436 63.15 24.957C64.048 25.48 63.796 26.466 62.42 26.756C60.063 27.278 57.003 25.944 56.02 25.247L53.831 28.177C55.263 29.251 57.087 30.237 59.978 30.672C59.978 30.672 64.582 31.485 67.108 28.352C67.557 27.829 69.634 23.971 65.48 21.737C63.319 20.577 59.866 20.054 58.8 19.416ZM39.49 33.37C39.66 33.457 41.596 34.82 43.449 34.82C47.996 34.908 48.249 30.18 48.249 29.077C47.406 30.005 45.638 30.585 44.543 30.585C40.165 30.585 36.684 27.191 36.684 22.811V15.123H40.81V22.811C40.81 24.841 42.494 26.524 44.515 26.524C46.536 26.524 48.22 24.841 48.22 22.811V15.123H52.346V22.811C52.346 29.657 52.683 36.677 46.031 38.273C41.063 39.463 37.498 36.329 37.245 36.155L39.49 33.37Z" fill="#011F44"/>
</svg>
