<svg width="20" height="20" viewBox="0 0 24 24" fill="none" xmlns="http://www.w3.org/2000/svg">
<path d="M21.2293 13.8679C19.9133 16.0639 16.9603 19.75 12.0003 19.75C11.0373 19.75 10.0863 19.604 9.17433 19.315C8.77933 19.19 8.56129 18.769 8.68629 18.374C8.81029 17.978 9.23521 17.762 9.62721 17.885C10.3922 18.127 11.1903 18.25 12.0003 18.25C16.2223 18.25 18.7903 15.02 19.9443 13.094C20.3523 12.418 20.3523 11.581 19.9463 10.907C19.6003 10.324 19.1772 9.72798 18.7202 9.17898C18.4552 8.85998 18.4994 8.38707 18.8184 8.12307C19.1384 7.85807 19.6103 7.90199 19.8753 8.21999C20.3813 8.82899 20.8512 9.49199 21.2332 10.137C21.9262 11.284 21.9263 12.7159 21.2293 13.8679ZM10.0632 14.9981L3.53028 21.531C3.38428 21.677 3.19225 21.751 3.00025 21.751C2.80825 21.751 2.61622 21.678 2.47022 21.531C2.17722 21.238 2.17722 20.763 2.47022 20.47L5.64527 17.2949C4.31727 16.1499 3.3523 14.837 2.7693 13.866C2.0753 12.716 2.07525 11.2841 2.77125 10.1331C4.08725 7.93708 7.04025 4.251 12.0003 4.251C13.8353 4.251 15.5653 4.76994 17.1553 5.78494L20.4692 2.47097C20.7622 2.17797 21.2373 2.17797 21.5303 2.47097C21.8233 2.76397 21.8233 3.23901 21.5303 3.53201L10.0652 14.9971C10.0652 14.9971 10.0652 14.9981 10.0642 14.9981C10.0632 14.9981 10.0632 14.9971 10.0632 14.9981ZM9.60914 13.3311L13.3313 9.60891C12.9293 9.38191 12.4783 9.251 12.0003 9.251C10.4843 9.251 9.25123 10.484 9.25123 12.001C9.25123 12.478 9.38314 12.9291 9.60914 13.3311ZM6.70729 16.232L8.5193 14.4199C8.0243 13.7169 7.75123 12.882 7.75123 11.999C7.75123 9.65605 9.65725 7.74905 12.0003 7.74905C12.8843 7.74905 13.7182 8.02211 14.4212 8.51711L16.0523 6.88601C14.7873 6.14501 13.4323 5.74807 12.0003 5.74807C7.77825 5.74807 5.21016 8.97808 4.05616 10.9041C3.64816 11.5801 3.64821 12.4171 4.05421 13.0911C4.59121 13.9881 5.48329 15.201 6.70729 16.232ZM14.7083 12.4351C14.5283 13.5951 13.5943 14.53 12.4363 14.709C12.0273 14.772 11.7463 15.155 11.8093 15.564C11.8673 15.935 12.1863 16.2 12.5493 16.2C12.5873 16.2 12.6263 16.1969 12.6643 16.1909C14.4913 15.9089 15.9082 14.4921 16.1902 12.6641C16.2532 12.2541 15.9732 11.8721 15.5632 11.8081C15.1632 11.7471 14.7713 12.0251 14.7083 12.4351Z" fill="#25314C"/>
</svg>
