<svg  viewBox="0 0 100 103" fill="none" xmlns="http://www.w3.org/2000/svg">
<g id="undraw_awesome_rlvy (1) 1" clip-path="url(#clip0_584_4599)">
<path id="Vector" d="M21.9104 38.9451C18.5376 34.4315 12.3646 33.3422 9.2971 35.6344C6.22959 37.9266 5.52495 44.1552 8.89775 48.6688C12.0197 52.8467 17.6759 53.9862 20.7913 52.4209C20.7812 52.4698 20.7806 52.5201 20.7894 52.5692L20.9651 53.4376C20.9785 53.5038 21.0086 53.5654 21.0525 53.6167C21.0964 53.668 21.1527 53.7072 21.2161 53.7307C21.2794 53.7541 21.3477 53.7609 21.4144 53.7505C21.4812 53.7401 21.5441 53.7128 21.5973 53.6712L23.0847 52.5093C23.1379 52.4677 23.1796 52.4132 23.2059 52.351C23.2321 52.2887 23.242 52.2208 23.2346 52.1537C23.2272 52.0866 23.2028 52.0224 23.1637 51.9674C23.1245 51.9124 23.072 51.8682 23.011 51.8392L22.2109 51.4587C22.1828 51.4461 22.1532 51.4368 22.1229 51.4311C24.5242 48.8923 25.0391 43.1321 21.9104 38.9451Z" fill="#CCCCCC"/>
<path id="Vector_2" d="M14.5328 37.2411C16.1827 37.5032 17.669 38.3887 18.6849 39.7148C19.7008 41.041 20.1687 42.7065 19.9922 44.3677C19.9559 44.7482 20.5505 44.7458 20.5865 44.3677C20.7566 42.5772 20.2434 40.7886 19.15 39.3606C18.0566 37.9326 16.4637 36.9708 14.6908 36.668C14.3167 36.6044 14.156 37.177 14.5328 37.2411Z" fill="white"/>
<path id="Vector_3" d="M99.4059 44.5965C101.221 39.2622 98.628 33.5552 95.0027 32.3218C91.3775 31.0884 85.8421 34.03 84.0273 39.3642C82.3474 44.3018 84.6066 49.6109 87.6594 51.2949C87.6134 51.3143 87.5716 51.3422 87.5361 51.3773L86.9193 52.0133C86.8723 52.0617 86.8384 52.1214 86.8209 52.1867C86.8035 52.2519 86.803 52.3205 86.8195 52.386C86.836 52.4515 86.869 52.5117 86.9153 52.5608C86.9616 52.61 87.0198 52.6465 87.0841 52.6668L88.8836 53.2363C88.948 53.2567 89.0165 53.2603 89.0827 53.2467C89.1489 53.2331 89.2105 53.2029 89.2616 53.1588C89.3128 53.1148 89.3519 53.0584 89.3752 52.995C89.3984 52.9316 89.4051 52.8633 89.3945 52.7966L89.2558 51.9215C89.2503 51.8912 89.2413 51.8615 89.2288 51.8333C92.6807 52.3779 97.7224 49.5448 99.4059 44.5965Z" fill="#CCCCCC"/>
<path id="Vector_4" d="M96.6389 37.5483C97.3558 39.0571 97.4661 40.7837 96.947 42.3715C96.4278 43.9593 95.3189 45.2873 93.8491 46.0812C93.5147 46.2665 93.853 46.7554 94.1852 46.5713C95.758 45.6989 96.9428 44.2642 97.5021 42.5548C98.0614 40.8454 97.9538 38.9878 97.2008 37.3544C97.0417 37.01 96.4786 37.2012 96.6389 37.5483Z" fill="white"/>
<path id="Vector_5" d="M56.7694 9.84172C56.5228 4.21256 52.0342 -0.162919 48.2085 0.00465678C44.3829 0.172233 40.294 4.92342 40.5406 10.5526C40.7688 15.7631 44.8021 19.889 48.2581 20.3492C48.2223 20.3839 48.1934 20.4252 48.1731 20.4708L47.8294 21.2873C47.8032 21.3496 47.7934 21.4175 47.8008 21.4846C47.8082 21.5517 47.8327 21.6158 47.8719 21.6708C47.911 21.7259 47.9636 21.7699 48.0246 21.7989C48.0856 21.8279 48.153 21.8408 48.2204 21.8364L50.1038 21.7133C50.1712 21.7089 50.2364 21.6874 50.2931 21.6507C50.3498 21.6141 50.3962 21.5635 50.4279 21.5039C50.4596 21.4442 50.4755 21.3775 50.4742 21.31C50.4728 21.2424 50.4542 21.1764 50.4201 21.1181L49.9731 20.3532C49.9569 20.3269 49.9377 20.3026 49.9159 20.2808C53.3298 19.5344 56.9981 15.0635 56.7694 9.84172Z" fill="#F472B6"/>
<path id="Vector_6" d="M51.6313 4.27977C52.8474 5.42518 53.5772 6.99374 53.6703 8.66169C53.7633 10.3296 53.2124 11.9697 52.1313 13.2432C51.8871 13.5373 52.3799 13.87 52.6225 13.5778C53.7711 12.1937 54.3539 10.4266 54.2541 8.63083C54.1543 6.83504 53.3793 5.14338 52.0845 3.89507C51.8111 3.63191 51.3559 4.01466 51.6313 4.27977Z" fill="white"/>
<path id="Vector_7" d="M57.0787 58.7808C61.5374 58.7808 65.1519 55.1663 65.1519 50.7075C65.1519 46.2488 61.5374 42.6343 57.0787 42.6343C52.62 42.6343 49.0054 46.2488 49.0054 50.7075C49.0054 55.1663 52.62 58.7808 57.0787 58.7808Z" fill="#F472B6"/>
<path id="Vector_8" d="M56.7117 101.897H54.4853C54.2253 101.897 53.9761 101.794 53.7923 101.61C53.6085 101.426 53.5051 101.177 53.5048 100.917V82.3604C53.5051 82.1004 53.6085 81.8512 53.7923 81.6674C53.9761 81.4836 54.2253 81.3802 54.4853 81.3799H56.7117C56.9717 81.3802 57.2209 81.4836 57.4047 81.6674C57.5885 81.8512 57.6919 82.1004 57.6922 82.3604V100.917C57.6919 101.177 57.5885 101.426 57.4047 101.61C57.2209 101.794 56.9717 101.897 56.7117 101.897Z" fill="#F472B6"/>
<path id="Vector_9" d="M63.8434 101.897H61.617C61.357 101.897 61.1078 101.794 60.924 101.61C60.7402 101.426 60.6368 101.177 60.6365 100.917V82.3604C60.6368 82.1004 60.7402 81.8512 60.924 81.6674C61.1078 81.4836 61.357 81.3802 61.617 81.3799H63.8434C64.1033 81.3802 64.3526 81.4836 64.5364 81.6674C64.7202 81.8512 64.8236 82.1004 64.8239 82.3604V100.917C64.8236 101.177 64.7202 101.426 64.5364 101.61C64.3526 101.794 64.1033 101.897 63.8434 101.897Z" fill="#F472B6"/>
<path id="Vector_10" d="M51.1452 66.4001L50.1901 68.4112C50.0784 68.6459 49.878 68.8267 49.6332 68.9139C49.3883 69.0011 49.1188 68.9875 48.8838 68.8763L32.1216 60.9161C31.8869 60.8043 31.7061 60.604 31.6189 60.3591C31.5317 60.1142 31.5452 59.8447 31.6565 59.6097L32.6116 57.5986C32.7233 57.3639 32.9237 57.1831 33.1686 57.0959C33.4135 57.0087 33.6829 57.0222 33.9179 57.1335L50.6801 65.0937C50.9148 65.2055 51.0956 65.4058 51.1828 65.6507C51.27 65.8956 51.2565 66.1651 51.1452 66.4001Z" fill="#F472B6"/>
<path id="Vector_11" d="M53.6705 67.4782C53.7179 67.7067 53.6815 67.9445 53.5681 68.1484L52.4921 70.0975C52.3662 70.3249 52.1552 70.4931 51.9054 70.5652C51.6557 70.6373 51.3875 70.6073 51.1598 70.482L43.2828 67.0095C43.0554 66.8836 42.8872 66.6727 42.8151 66.4229C42.743 66.1731 42.773 65.905 42.8984 65.6773L44.8723 61.9846C44.9345 61.8719 45.0183 61.7725 45.119 61.6922C45.2196 61.6119 45.3351 61.5522 45.4588 61.5165C45.5825 61.4808 45.712 61.4698 45.84 61.4842C45.968 61.4985 46.0918 61.5379 46.2045 61.6002L53.279 66.2767C53.5083 66.4033 53.5792 67.151 53.6519 67.4026C53.6592 67.4277 53.6653 67.453 53.6705 67.4782Z" fill="#2F2E41"/>
<path id="Vector_12" d="M63.3553 65.0937L80.1175 57.1335C80.3525 57.0222 80.6219 57.0087 80.8668 57.0959C81.1117 57.1831 81.312 57.3639 81.4238 57.5986L82.3789 59.6097C82.4902 59.8447 82.5037 60.1142 82.4165 60.3591C82.3293 60.604 82.1485 60.8043 81.9138 60.9161L65.1516 68.8763C64.9166 68.9875 64.6471 69.0011 64.4022 68.9139C64.1573 68.8267 63.957 68.6459 63.8452 68.4112L62.8902 66.4001C62.7789 66.1651 62.7654 65.8956 62.8526 65.6507C62.9398 65.4058 63.1206 65.2055 63.3553 65.0937Z" fill="#F472B6"/>
<path id="Vector_13" d="M60.3835 67.4026C60.4562 67.151 60.5271 66.4033 60.7564 66.2767L67.8309 61.6002C67.9436 61.538 68.0675 61.4985 68.1954 61.4842C68.3234 61.4698 68.4529 61.4808 68.5766 61.5165C68.7003 61.5522 68.8158 61.6119 68.9164 61.6922C69.0171 61.7725 69.1009 61.8719 69.1631 61.9846L71.137 65.6772C71.2624 65.9049 71.2924 66.1731 71.2203 66.4229C71.1483 66.6727 70.9801 66.8836 70.7526 67.0095L62.8757 70.482C62.6479 70.6073 62.3797 70.6373 62.13 70.5652C61.8802 70.4931 61.6692 70.3249 61.5433 70.0975L60.4673 68.1484C60.3539 67.9445 60.3175 67.7067 60.3649 67.4782C60.3701 67.453 60.3762 67.4277 60.3835 67.4026Z" fill="#2F2E41"/>
<path id="Vector_14" d="M56.004 53.6999L55.9956 53.3982C56.5569 53.3826 57.0517 53.3473 57.4235 53.0757C57.5289 52.9943 57.6155 52.8912 57.6775 52.7733C57.7395 52.6554 57.7754 52.5256 57.7827 52.3926C57.7892 52.3114 57.777 52.2297 57.7468 52.154C57.7166 52.0782 57.6694 52.0105 57.6088 51.956C57.362 51.7475 56.9648 51.815 56.6754 51.9477L56.4257 52.0622L56.9044 48.564L57.2033 48.6049L56.7962 51.5806C56.9628 51.5188 57.1423 51.4997 57.3183 51.525C57.4943 51.5503 57.6611 51.6193 57.8036 51.7256C57.8994 51.8093 57.9746 51.914 58.0233 52.0315C58.072 52.1491 58.0928 52.2763 58.0842 52.4032C58.0754 52.5819 58.0276 52.7565 57.9442 52.9147C57.8608 53.073 57.7438 53.2111 57.6015 53.3194C57.1237 53.6685 56.5029 53.6859 56.004 53.6999Z" fill="#2F2E41"/>
<path id="Vector_15" d="M60.3064 48.8613H58.6815V49.163H60.3064V48.8613Z" fill="#2F2E41"/>
<path id="Vector_16" d="M55.1776 48.8613H53.5527V49.163H55.1776V48.8613Z" fill="#2F2E41"/>
<path id="Vector_17" d="M59.8618 62.5543H60.1873C60.3175 62.5544 60.4465 62.5289 60.5668 62.4792C60.6871 62.4295 60.7964 62.3566 60.8886 62.2646C60.9807 62.1726 61.0537 62.0634 61.1036 61.9431C61.1534 61.8228 61.1791 61.6939 61.1791 61.5638C61.1791 61.4336 61.1534 61.3047 61.1036 61.1844C61.0537 61.0642 60.9807 60.9549 60.8886 60.8629C60.7964 60.7709 60.6871 60.698 60.5668 60.6483C60.4465 60.5986 60.3175 60.5731 60.1873 60.5732H53.8481C53.5856 60.5736 53.334 60.6781 53.1485 60.8638C52.963 61.0495 52.8588 61.3013 52.8588 61.5638C52.8588 61.8262 52.963 62.078 53.1485 62.2637C53.334 62.4494 53.5856 62.5539 53.8481 62.5543H54.4435C49.356 64.8689 46.0915 73.419 46.0915 78.7472C46.0915 84.9543 50.5712 86.9565 57.1528 86.9565C63.7344 86.9565 69.9254 84.9543 69.9254 78.7472C69.9254 73.419 65.3271 64.8689 59.8618 62.5543Z" fill="#2F2E41"/>
<path id="Vector_18" d="M56.7462 46.0965C56.5495 45.4987 55.8399 45.3153 55.2937 45.5408C54.6533 45.8052 54.2901 46.4603 53.6716 46.77C52.559 47.327 51.0831 47.0278 50.2349 46.1351C49.3073 45.1588 49.1246 43.6353 49.5914 42.4026C50.0742 41.1278 51.2718 40.2052 52.554 39.8304C54.2578 39.3325 56.0859 39.7894 57.5616 40.7079C57.6011 40.7304 57.6451 40.7436 57.6904 40.7465C57.7356 40.7495 57.781 40.7422 57.823 40.7251C57.865 40.708 57.9026 40.6816 57.933 40.6478C57.9633 40.6141 57.9856 40.5739 57.9982 40.5303C58.404 38.9799 60.1546 38.5285 61.5612 38.6949C62.9497 38.8861 64.2705 39.4132 65.409 40.2305C67.6082 41.7647 69.1585 44.2638 69.3757 46.9542C69.48 48.338 69.2806 49.7279 68.7915 51.0266C68.3024 52.3252 67.5353 53.5013 66.544 54.4725C66.0483 54.9509 65.4706 55.3271 64.9652 55.7933C64.5048 56.2179 64.051 56.7766 64.0601 57.4376C64.0813 58.9575 66.0813 59.3768 67.265 59.4223C68.7343 59.488 70.1772 59.0162 71.324 58.0953C72.4708 57.1744 73.2429 55.8674 73.496 54.4185C73.5591 54.0658 73.5918 53.7083 73.5937 53.35C73.5955 52.9676 73.0012 52.9671 72.9994 53.35C72.9883 54.7945 72.4199 56.1788 71.4129 57.2143C70.8953 57.7336 70.2791 58.1442 69.6006 58.4221C68.9221 58.6999 68.1949 58.8395 67.4618 58.8324C66.5169 58.8277 63.9568 58.3797 64.8148 56.8849C65.1503 56.3005 65.7523 55.9026 66.2711 55.4959C66.811 55.0717 67.3011 54.5878 67.7323 54.0535C68.6007 52.9812 69.2407 51.7428 69.6132 50.4142C69.9856 49.0856 70.0826 47.6949 69.8981 46.3275C69.5151 43.6475 67.8902 41.2261 65.6797 39.6968C63.5751 38.2409 59.685 36.9532 57.8456 39.4758C57.6507 39.7458 57.508 40.0499 57.4251 40.3723L57.8616 40.1948C56.4397 39.3098 54.7449 38.8508 53.0738 39.1068C52.3546 39.2152 51.665 39.4692 51.0472 39.8533C50.4295 40.2373 49.8966 40.7434 49.4812 41.3405C49.0829 41.941 48.8391 42.6305 48.7715 43.3479C48.7038 44.0653 48.8144 44.7883 49.0934 45.4527C49.3668 46.0891 49.8173 46.6336 50.3913 47.0212C50.9653 47.4088 51.6387 47.6232 52.3312 47.6389C53.081 47.669 53.8189 47.4432 54.4235 46.9985C54.762 46.7404 55.022 46.375 55.3884 46.1551C55.5983 46.0292 56.0699 45.9409 56.1732 46.2545C56.2922 46.6161 56.8663 46.4613 56.7462 46.0965Z" fill="#2F2E41"/>
<path id="Vector_19" d="M70.2165 16.7583C71.6912 16.8512 73.1228 17.2923 74.394 18.0453C75.6653 18.7983 76.74 19.8419 77.5301 21.0905C77.7515 21.4444 78.0406 21.8334 77.8873 22.2691C77.8339 22.4361 77.7254 22.5801 77.5795 22.6776C77.4337 22.775 77.2591 22.82 77.0844 22.8053C76.6324 22.7503 76.3408 22.3082 76.2852 21.8846C76.222 21.4041 76.561 21.0269 76.9795 20.8484C78.0023 20.4121 79.0341 21.0863 79.8672 21.6244C81.7655 22.8505 83.8534 23.9593 86.1536 24.099C88.2818 24.2283 90.564 23.3938 91.7477 21.5483C91.9548 21.2254 91.4406 20.927 91.2345 21.2483C90.0606 23.0787 87.6873 23.736 85.6237 23.4531C84.394 23.2591 83.2066 22.8559 82.1129 22.2612C81.5458 21.9668 80.9957 21.6405 80.4567 21.2975C79.9438 20.9397 79.4002 20.628 78.8322 20.3663C77.885 19.9772 76.6311 20.0076 75.9694 20.9034C75.3521 21.7392 75.8292 23.1307 76.8616 23.3656C77.84 23.5883 78.6972 22.6681 78.4958 21.706C78.3928 21.2138 78.0222 20.7321 77.7353 20.3299C76.8734 19.1174 75.7505 18.1137 74.4492 17.3927C73.148 16.6717 71.7015 16.2519 70.2165 16.164C69.8342 16.1451 69.8352 16.7395 70.2165 16.7583Z" fill="#CCCCCC"/>
<path id="Vector_20" d="M21.5794 26.0925C20.1048 25.9996 18.6732 25.5585 17.4019 24.8055C16.1306 24.0525 15.0559 23.0089 14.2658 21.7603C14.0444 21.4063 13.7554 21.0174 13.9087 20.5817C13.9621 20.4146 14.0705 20.2706 14.2164 20.1732C14.3622 20.0758 14.5368 20.0308 14.7116 20.0454C15.1635 20.1004 15.4551 20.5425 15.5108 20.9661C15.5739 21.4466 15.2349 21.8239 14.8164 22.0024C13.7937 22.4387 12.7618 21.7645 11.9287 21.2264C10.0304 20.0003 7.94252 18.8915 5.64233 18.7518C3.51414 18.6225 1.23197 19.4569 0.0482373 21.3025C-0.158861 21.6254 0.35534 21.9237 0.561411 21.6025C1.73539 19.7721 4.10866 19.1147 6.17219 19.3976C7.40191 19.5917 8.58933 19.9948 9.683 20.5896C10.2502 20.8839 10.8003 21.2102 11.3392 21.5532C11.8521 21.9111 12.3957 22.2227 12.9637 22.4845C13.9109 22.8736 15.1649 22.8432 15.8265 21.9473C16.4438 21.1116 15.9668 19.7201 14.9343 19.4852C13.9559 19.2625 13.0988 20.1827 13.3001 21.1448C13.4031 21.637 13.7737 22.1186 14.0606 22.5209C14.9225 23.7334 16.0455 24.7371 17.3467 25.4581C18.648 26.1791 20.0944 26.5989 21.5795 26.6868C21.9618 26.7057 21.9607 26.1113 21.5794 26.0925Z" fill="#CCCCCC"/>
<path id="Vector_21" d="M90.116 102.068H28.2912C28.2482 102.068 28.2069 102.051 28.1765 102.02C28.146 101.99 28.1289 101.948 28.1289 101.905C28.1289 101.862 28.146 101.821 28.1765 101.791C28.2069 101.76 28.2482 101.743 28.2912 101.743H90.116C90.159 101.743 90.2003 101.76 90.2307 101.791C90.2612 101.821 90.2783 101.862 90.2783 101.905C90.2783 101.948 90.2612 101.99 90.2307 102.02C90.2003 102.051 90.159 102.068 90.116 102.068Z" fill="#3F3D56"/>
</g>
<defs>
<clipPath id="clip0_584_4599">
<rect width="100" height="102.068" fill="white"/>
</clipPath>
</defs>
</svg>
