<svg width="32" height="33" viewBox="0 0 32 33" fill="none" xmlns="http://www.w3.org/2000/svg">
<g id="Instagram">
<rect y="0.151855" width="32" height="32" rx="16" fill="white"/>
<g id="Vector">
<path d="M16.0025 8.2822C18.5677 8.2822 18.8688 8.29363 19.8827 8.33937C20.8203 8.3813 21.3272 8.53757 21.6665 8.67097C22.1162 8.8463 22.4364 9.05213 22.7718 9.38754C23.1072 9.72296 23.3169 10.0431 23.4884 10.4929C23.618 10.8321 23.7781 11.3391 23.82 12.2767C23.8657 13.2906 23.8772 13.5917 23.8772 16.1568C23.8772 18.722 23.8657 19.0231 23.82 20.037C23.7781 20.9746 23.6218 21.4816 23.4884 21.8208C23.3131 22.2705 23.1072 22.5907 22.7718 22.9261C22.4364 23.2615 22.1162 23.4712 21.6665 23.6427C21.3272 23.7723 20.8203 23.9324 19.8827 23.9743C18.8688 24.02 18.5677 24.0315 16.0025 24.0315C13.4374 24.0315 13.1362 24.02 12.1224 23.9743C11.1847 23.9324 10.6778 23.7761 10.3386 23.6427C9.88881 23.4674 9.56864 23.2615 9.23322 22.9261C8.89781 22.5907 8.68817 22.2705 8.51665 21.8208C8.38706 21.4816 8.22697 20.9746 8.18505 20.037C8.13931 19.0231 8.12787 18.722 8.12787 16.1568C8.12787 13.5917 8.13931 13.2906 8.18505 12.2767C8.22697 11.3391 8.38325 10.8321 8.51665 10.4929C8.69198 10.0431 8.89781 9.72296 9.23322 9.38754C9.56864 9.05213 9.88881 8.84249 10.3386 8.67097C10.6778 8.54138 11.1847 8.3813 12.1224 8.33937C13.1362 8.28982 13.4412 8.2822 16.0025 8.2822ZM16.0025 6.55176C13.3954 6.55176 13.0676 6.56319 12.0423 6.60893C11.0208 6.65467 10.3233 6.81857 9.71348 7.05488C9.08076 7.29882 8.54714 7.63042 8.01353 8.16404C7.47991 8.69765 7.15212 9.23508 6.90437 9.86399C6.66805 10.4738 6.50416 11.1713 6.45842 12.1966C6.41268 13.2181 6.40125 13.5459 6.40125 16.153C6.40125 18.7601 6.41268 19.0879 6.45842 20.1132C6.50416 21.1347 6.66805 21.8322 6.90437 22.4459C7.14831 23.0786 7.47991 23.6122 8.01353 24.1458C8.54714 24.6794 9.08457 25.0072 9.71348 25.255C10.3233 25.4913 11.0208 25.6552 12.0461 25.7009C13.0714 25.7467 13.3954 25.7581 16.0063 25.7581C18.6172 25.7581 18.9412 25.7467 19.9665 25.7009C20.988 25.6552 21.6855 25.4913 22.2992 25.255C22.9319 25.011 23.4655 24.6794 23.9991 24.1458C24.5328 23.6122 24.8605 23.0748 25.1083 22.4459C25.3446 21.836 25.5085 21.1385 25.5542 20.1132C25.6 19.0879 25.6114 18.7639 25.6114 16.153C25.6114 13.5421 25.6 13.2181 25.5542 12.1928C25.5085 11.1713 25.3446 10.4738 25.1083 9.86017C24.8644 9.22746 24.5328 8.69384 23.9991 8.16023C23.4655 7.62661 22.9281 7.29882 22.2992 7.05107C21.6893 6.81475 20.9918 6.65086 19.9665 6.60512C18.9374 6.56319 18.6096 6.55176 16.0025 6.55176Z" fill="#272727"/>
<path d="M16.0025 8.2822C18.5677 8.2822 18.8688 8.29363 19.8827 8.33937C20.8203 8.3813 21.3272 8.53757 21.6665 8.67097C22.1162 8.8463 22.4364 9.05213 22.7718 9.38754C23.1072 9.72296 23.3169 10.0431 23.4884 10.4929C23.618 10.8321 23.7781 11.3391 23.82 12.2767C23.8657 13.2906 23.8772 13.5917 23.8772 16.1568C23.8772 18.722 23.8657 19.0231 23.82 20.037C23.7781 20.9746 23.6218 21.4816 23.4884 21.8208C23.3131 22.2705 23.1072 22.5907 22.7718 22.9261C22.4364 23.2615 22.1162 23.4712 21.6665 23.6427C21.3272 23.7723 20.8203 23.9324 19.8827 23.9743C18.8688 24.02 18.5677 24.0315 16.0025 24.0315C13.4374 24.0315 13.1362 24.02 12.1224 23.9743C11.1847 23.9324 10.6778 23.7761 10.3386 23.6427C9.88881 23.4674 9.56864 23.2615 9.23322 22.9261C8.89781 22.5907 8.68817 22.2705 8.51665 21.8208C8.38706 21.4816 8.22697 20.9746 8.18505 20.037C8.13931 19.0231 8.12787 18.722 8.12787 16.1568C8.12787 13.5917 8.13931 13.2906 8.18505 12.2767C8.22697 11.3391 8.38325 10.8321 8.51665 10.4929C8.69198 10.0431 8.89781 9.72296 9.23322 9.38754C9.56864 9.05213 9.88881 8.84249 10.3386 8.67097C10.6778 8.54138 11.1847 8.3813 12.1224 8.33937C13.1362 8.28982 13.4412 8.2822 16.0025 8.2822Z" fill="#272727"/>
</g>
<path id="Vector_2" d="M16.0026 11.2246C13.2811 11.2246 11.0704 13.4315 11.0704 16.1567C11.0704 18.882 13.2773 21.0889 16.0026 21.0889C18.7278 21.0889 20.9347 18.882 20.9347 16.1567C20.9347 13.4315 18.7278 11.2246 16.0026 11.2246ZM16.0026 19.3546C14.234 19.3546 12.8009 17.9215 12.8009 16.1529C12.8009 14.3844 14.234 12.9512 16.0026 12.9512C17.7711 12.9512 19.2043 14.3844 19.2043 16.1529C19.2043 17.9215 17.7711 19.3546 16.0026 19.3546Z" fill="white"/>
<path id="Vector_3" d="M21.1291 12.1777C21.7648 12.1777 22.2802 11.6623 22.2802 11.0266C22.2802 10.3908 21.7648 9.87549 21.1291 9.87549C20.4934 9.87549 19.978 10.3908 19.978 11.0266C19.978 11.6623 20.4934 12.1777 21.1291 12.1777Z" fill="white"/>
</g>
</svg>
