<svg width="32" height="33" viewBox="0 0 32 33" fill="none" xmlns="http://www.w3.org/2000/svg">
<g id="LinkedIn">
<rect y="0.151855" width="32" height="32" rx="16" fill="white"/>
<path id="Vector" d="M23.5007 7.35205H8.49917C8.1546 7.35205 7.82414 7.48893 7.58048 7.73258C7.33683 7.97624 7.19995 8.3067 7.19995 8.65127V23.6528C7.19995 23.9974 7.33683 24.3279 7.58048 24.5715C7.82414 24.8152 8.1546 24.952 8.49917 24.952H23.5007C23.8453 24.952 24.1758 24.8152 24.4194 24.5715C24.6631 24.3279 24.7999 23.9974 24.7999 23.6528V8.65127C24.7999 8.3067 24.6631 7.97624 24.4194 7.73258C24.1758 7.48893 23.8453 7.35205 23.5007 7.35205ZM12.4457 22.345H9.79962V13.9398H12.4457V22.345ZM11.1208 12.7751C10.8207 12.7734 10.5278 12.6828 10.279 12.5148C10.0303 12.3468 9.8369 12.1088 9.72326 11.831C9.60962 11.5532 9.58083 11.248 9.64051 10.9538C9.70019 10.6596 9.84567 10.3897 10.0586 10.1782C10.2715 9.96659 10.5423 9.82285 10.8369 9.76506C11.1314 9.70726 11.4365 9.73802 11.7136 9.85344C11.9907 9.96886 12.2273 10.1638 12.3938 10.4136C12.5602 10.6634 12.6489 10.9569 12.6486 11.2571C12.6514 11.458 12.6138 11.6575 12.5379 11.8436C12.462 12.0297 12.3494 12.1986 12.2068 12.3402C12.0643 12.4819 11.8946 12.5934 11.7081 12.6681C11.5215 12.7428 11.3218 12.7792 11.1208 12.7751ZM22.1991 22.3524H19.5542V17.7605C19.5542 16.4063 18.9785 15.9883 18.2354 15.9883C17.4507 15.9883 16.6807 16.5798 16.6807 17.7947V22.3524H14.0346V13.9459H16.5793V15.1107H16.6135C16.869 14.5937 17.7636 13.7101 19.1288 13.7101C20.6053 13.7101 22.2003 14.5864 22.2003 17.1531L22.1991 22.3524Z" fill="#272727"/>
</g>
</svg>
