<svg width="94" height="94" viewBox="0 0 94 94" fill="none" xmlns="http://www.w3.org/2000/svg">
<g clip-path="url(#clip0_804_3115)">
<path d="M43.9133 34.8032C46.9031 32.3326 47.2799 28.3078 47.0945 26.6044C48.947 25.9384 50.8707 27.2953 51.2164 28.1573C50.235 33.6687 45.6824 34.9511 43.9133 34.8032Z" fill="#EBF3DC" stroke="#2F2F2F" stroke-width="1.6177" stroke-linejoin="round"/>
<path d="M77.7809 9.302L57.1569 29.042L76.5697 39.4416L77.7809 9.302Z" fill="#B29AFF" stroke="#2F2F2F" stroke-width="1.6177" stroke-linecap="round" stroke-linejoin="round"/>
<path d="M64.6828 38.3116C70.1153 41.2385 75.3507 42.0681 76.3762 40.1645C77.4018 38.261 73.8293 34.3451 68.3968 31.4183C62.9642 28.4914 57.7289 27.6618 56.7033 29.5653C55.6778 31.4689 59.2503 35.3847 64.6828 38.3116Z" fill="#2F2F2F" stroke="#2F2F2F" stroke-width="1.6177" stroke-linecap="round" stroke-linejoin="round"/>
<path d="M56.6171 31.2492C43.9324 29.3281 32.0921 38.0537 30.171 50.7385C28.2499 63.4232 36.9755 75.2635 49.6602 77.1846C62.3449 79.1057 74.1853 70.3801 76.1064 57.6954C78.0275 45.0107 69.3019 33.1703 56.6171 31.2492Z" fill="#FAFC6F" stroke="#2F2F2F" stroke-width="2.03367" stroke-linejoin="round"/>
<path d="M22.1873 41.267C22.9279 46.6937 27.6635 51.9303 29.9388 53.8702C35.0358 52.5305 34.255 49.5108 33.2275 48.1684C31.963 46.605 30.8869 43.5182 29.2443 38.8068C27.6019 34.0954 21.2615 34.4837 22.1873 41.267Z" fill="#FAFC6F"/>
<path d="M30.024 53.8798C27.7149 51.9463 22.9164 46.7181 22.1954 41.2733C21.2943 34.4673 27.7664 34.0366 29.4122 38.7573C31.0579 43.4782 32.1362 46.571 33.4165 48.1329" stroke="#2F2F2F" stroke-width="2.03367" stroke-linecap="round" stroke-linejoin="round"/>
<path d="M43.3084 45.7536C41.656 41.5345 36.8962 39.4538 32.6771 41.1063C28.458 42.7587 26.3773 47.5185 28.0297 51.7376C29.6821 55.9567 34.4419 58.0374 38.661 56.385C42.8801 54.7325 44.9608 49.9727 43.3084 45.7536Z" fill="white" stroke="#2F2F2F" stroke-width="2.03367"/>
<mask id="mask0_804_3115" style="mask-type:alpha" maskUnits="userSpaceOnUse" x="27" y="40" width="19" height="19">
<path d="M43.9994 46.2715C42.3469 42.0524 37.5871 39.9717 33.368 41.6241C29.1489 43.2765 27.0682 48.0363 28.7207 52.2554C30.3731 56.4745 35.1329 58.5552 39.352 56.9028C43.5711 55.2504 45.6518 50.4906 43.9994 46.2715Z" fill="white" stroke="#2F2F2F" stroke-width="2.03367"/>
</mask>
<g mask="url(#mask0_804_3115)">
<path d="M39.0118 45.0967C37.9366 42.3513 34.8394 40.9974 32.094 42.0727C29.3486 43.1479 27.9947 46.2451 29.07 48.9905C30.1452 51.7359 33.2424 53.0898 35.9878 52.0145C38.7332 50.9393 40.0871 47.8421 39.0118 45.0967Z" fill="#2F2F2F"/>
</g>
<path d="M56.6715 47.7773C55.0191 43.5582 50.2592 41.4775 46.0401 43.1299C41.821 44.7824 39.7404 49.5422 41.3928 53.7613C43.0452 57.9804 47.805 60.0611 52.0241 58.4087C56.2432 56.7562 58.3239 51.9964 56.6715 47.7773Z" fill="white" stroke="#2F2F2F" stroke-width="2.03367"/>
<mask id="mask1_804_3115" style="mask-type:alpha" maskUnits="userSpaceOnUse" x="39" y="41" width="20" height="19">
<path d="M56.6715 47.7773C55.0191 43.5582 50.2592 41.4775 46.0401 43.1299C41.821 44.7824 39.7404 49.5422 41.3928 53.7613C43.0452 57.9804 47.805 60.0611 52.0241 58.4087C56.2432 56.7562 58.3239 51.9964 56.6715 47.7773Z" fill="white" stroke="#2F2F2F" stroke-width="2.03367"/>
</mask>
<g mask="url(#mask1_804_3115)">
<path d="M51.683 46.6016C50.6078 43.8562 47.5106 42.5023 44.7652 43.5775C42.0198 44.6528 40.6659 47.75 41.7412 50.4954C42.8164 53.2407 45.9136 54.5947 48.659 53.5194C51.4044 52.4442 52.7583 49.347 51.683 46.6016Z" fill="#2F2F2F"/>
</g>
<path d="M54.2158 47.3095C51.3708 51.9895 44.9388 54.9008 42.0783 55.7714C37.9395 52.5087 39.8607 50.0516 41.3386 49.2309C43.1221 48.3021 45.3408 45.9013 48.7272 42.237C52.1137 38.5727 57.7721 41.4594 54.2158 47.3095Z" fill="#FAFC6F"/>
<path d="M71.1395 60.1292C74.0284 59.278 80.5149 56.3995 83.3491 51.6949C86.8918 45.8142 81.1295 42.8361 77.7363 46.5077C74.3432 50.1792 72.1201 52.5848 70.3227 53.5059" stroke="#2F2F2F" stroke-width="2.03367" stroke-linecap="round" stroke-linejoin="round"/>
<path d="M28.7152 23.9085C25.2025 21.3203 24.9405 17.2838 25.2487 15.589C23.0301 14.8495 20.6267 16.1283 20.1645 16.9757C21.0889 22.5221 26.5582 23.9856 28.7152 23.9085Z" fill="#B29AFF" stroke="#2F2F2F" stroke-width="1.6177" stroke-linejoin="round"/>
<path d="M59.6299 46.0789C63.8943 45.1554 65.7858 41.5798 66.1985 39.9075C68.5253 40.141 70.1946 42.2916 70.2694 43.2539C67.1555 47.9358 61.5663 47.0322 59.6299 46.0789Z" fill="#B29AFF" stroke="#2F2F2F" stroke-width="1.6177" stroke-linejoin="round"/>
<path d="M17.3048 80.3233C13.5878 78.0381 12.9888 74.0378 13.1539 72.3232C10.8813 71.772 8.5933 73.2476 8.20367 74.1307C9.58923 79.5802 15.1619 80.5806 17.3048 80.3233Z" fill="#EBF3DC" stroke="#2F2F2F" stroke-width="1.6177" stroke-linejoin="round"/>
<path d="M25.7689 68.0057C26.3917 63.6871 29.8261 61.55 31.4654 61.0213C31.0697 58.7165 28.8074 57.2018 27.8423 57.1946C23.3898 60.6286 24.6825 66.1408 25.7689 68.0057Z" fill="#B29AFF" stroke="#2F2F2F" stroke-width="1.6177" stroke-linejoin="round"/>
<path d="M78.2228 89.5481C82.1691 90.0461 84.8787 87.5448 85.7401 86.2319C87.67 87.1377 88.4538 89.4926 88.2265 90.3426C84.1307 93.4248 79.5989 90.9545 78.2228 89.5481Z" fill="#B29AFF" stroke="#2F2F2F" stroke-width="1.6177" stroke-linejoin="round"/>
<path d="M13.9367 44.543C10.5841 45.825 7.67318 44.2129 6.63681 43.2466C5.13915 44.4539 4.95666 46.686 5.33794 47.3825C9.58846 49.2068 13.0317 46.0705 13.9367 44.543Z" fill="#B29AFF" stroke="#2F2F2F" stroke-width="1.33073" stroke-linejoin="round"/>
<path d="M82.6429 40.6239C85.4872 38.4345 85.6328 35.1102 85.35 33.7217C87.1619 33.0752 89.1607 34.0854 89.5554 34.7743C88.8911 39.3518 84.4182 40.65 82.6429 40.6239Z" fill="#EBF3DC" stroke="#2F2F2F" stroke-width="1.33073" stroke-linejoin="round"/>
<path d="M49.3308 74.9695C52.8509 74.2675 54.4548 71.352 54.8168 69.9822C56.7275 70.2057 58.0714 71.9971 58.12 72.7896C55.4955 76.5984 50.9106 75.7796 49.3308 74.9695Z" fill="#B29AFF" stroke="#2F2F2F" stroke-width="1.33073" stroke-linejoin="round"/>
<path d="M84.4857 71.2523C87.7554 71.1269 89.6187 68.7332 90.1416 67.552C91.8295 68.0281 92.7816 69.8341 92.7113 70.5545C89.8009 73.6056 85.7913 72.209 84.4857 71.2523Z" fill="#EBF3DC" stroke="#2F2F2F" stroke-width="1.33073" stroke-linejoin="round"/>
</g>
<defs>
<clipPath id="clip0_804_3115">
<rect width="93.9894" height="93" fill="white" transform="translate(0.00531006 0.046875)"/>
</clipPath>
</defs>
</svg>
