<svg width="120" height="41" viewBox="0 0 120 41" fill="none" xmlns="http://www.w3.org/2000/svg">
<path d="M23 5.018H25.754C26.819 6.818 27.811 8.654 28.913 10.417C29.959 8.617 30.988 6.817 32.034 5.018C32.952 5.037 33.871 5.018 34.789 5.018V19.121H31.869C31.869 16.421 31.887 13.704 31.851 11.005C31.116 12.143 30.565 13.392 29.904 14.567H27.866C27.406 13.667 26.911 12.786 26.452 11.886C26.287 11.592 26.158 11.262 25.902 11.023C25.882 13.723 25.902 16.421 25.902 19.103H23V5.018ZM46.797 7.846C46.797 6.377 45.512 5.036 44.043 5.018C42.85 5.018 41.638 5 40.444 5.037C39.012 5.165 37.837 6.469 37.874 7.883V16.33C37.892 17.505 38.736 18.625 39.874 18.974C40.683 19.231 41.546 19.084 42.391 19.121C43.345 19.084 44.355 19.267 45.218 18.791C46.21 18.313 46.816 17.229 46.798 16.146C46.798 13.392 46.815 10.619 46.797 7.846ZM43.86 16.164L43.694 16.329C42.739 16.366 41.784 16.329 40.848 16.348C40.72 13.961 40.83 11.555 40.793 9.168C40.83 8.728 40.72 8.25 40.867 7.809C41.858 7.754 42.887 7.754 43.877 7.828C43.877 10.618 43.897 13.392 43.86 16.164ZM49.846 5.018H52.6C53.665 6.818 54.675 8.636 55.758 10.417C56.805 8.617 57.852 6.817 58.88 5H61.671C61.597 9.7 61.708 14.402 61.634 19.084H58.733C58.715 16.366 58.751 13.649 58.715 10.949C57.98 12.106 57.429 13.355 56.75 14.549H54.712C54.069 13.355 53.463 12.143 52.802 10.949C52.692 13.667 52.784 16.385 52.765 19.102H49.845L49.846 5.018ZM64.719 5.018H73.496V7.791H67.64V10.491H72.616V13.263H67.64V16.385H73.626V19.157H64.72L64.719 5.018ZM76.214 5.018H78.932C80.015 7.203 81.135 9.37 82.218 11.574C82.31 11.776 82.438 11.941 82.568 12.124C82.604 9.756 82.568 7.387 82.586 5.037C83.559 5.018 84.532 5.037 85.506 5.037V19.139H82.788C81.576 16.77 80.418 14.365 79.17 12.014C79.078 14.384 79.152 16.77 79.133 19.139H76.213C76.196 14.419 76.196 9.719 76.213 5.019L76.214 5.018ZM87.819 5.018H96.633V7.791H93.676V19.14H90.776V7.791H87.819V5.018ZM23 36.271V22.169H31.759V24.923H25.9V28.045C27.571 28.026 29.224 28.045 30.895 28.045V30.817C29.242 30.799 27.571 30.817 25.9 30.817V36.289C24.945 36.271 23.973 36.271 23 36.271ZM35.817 22.169C36.9 22.187 37.984 22.169 39.067 22.187C40.261 26.887 41.509 31.589 42.721 36.289H39.728C38.957 33.168 38.222 30.028 37.469 26.888C37.231 27.163 37.231 27.568 37.139 27.916C36.478 30.707 35.835 33.498 35.174 36.289H32.181C33.393 31.57 34.568 26.851 35.817 22.169ZM46.192 22.352C47.33 21.985 48.56 22.242 49.736 22.15C50.892 22.04 52.104 22.591 52.656 23.62C53.224 24.593 52.949 25.75 53.004 26.814H50.121C50.084 26.172 50.25 25.511 49.993 24.904C49.093 24.941 48.193 24.904 47.293 24.924C47.202 27.769 47.257 30.615 47.275 33.462C48.23 33.498 49.185 33.498 50.139 33.462C50.176 32.837 50.176 32.212 50.176 31.589H53.077C53.041 32.709 53.279 33.957 52.6 34.949C51.994 35.904 50.837 36.363 49.736 36.253C48.469 36.161 47.11 36.51 45.916 35.923C44.906 35.426 44.282 34.306 44.337 33.205V24.94C44.337 23.82 45.127 22.756 46.192 22.352ZM54.95 22.169H63.544V24.941H60.698V36.29H57.778V24.96H54.95V22.169ZM74.414 33.058C74.396 30.358 74.414 27.678 74.414 24.978C74.414 23.418 72.945 22.077 71.384 22.188C70.062 22.261 68.722 22.022 67.437 22.352C66.28 22.738 65.472 23.913 65.49 25.143V33.443C65.49 34.931 66.794 36.289 68.3 36.289C69.438 36.289 70.595 36.308 71.734 36.289C73.331 36.216 74.598 34.637 74.414 33.058ZM71.44 33.462C70.448 33.553 69.42 33.535 68.428 33.462C68.428 30.67 68.41 27.898 68.428 25.107L68.594 24.941C69.548 24.905 70.504 24.941 71.44 24.923C71.568 27.127 71.458 29.348 71.495 31.57C71.458 32.194 71.587 32.856 71.44 33.462ZM84.642 31.038C85.413 30.487 85.946 29.605 85.946 28.651C85.946 27.439 85.964 26.208 85.946 24.997C85.927 23.509 84.624 22.206 83.155 22.187C81.153 22.169 79.17 22.187 77.187 22.187V36.29H80.107V31.498H81.887C82.439 33.095 82.99 34.674 83.522 36.29H86.552C85.891 34.546 85.266 32.782 84.642 31.038ZM83.008 28.706C82.035 28.761 81.061 28.724 80.07 28.742V24.96C81.043 25.033 82.053 24.831 82.99 25.07C83.081 26.264 83.045 27.494 83.008 28.706ZM87.452 22.169H90.426C90.977 23.803 91.491 25.437 92.024 27.071C92.079 27.255 92.171 27.439 92.299 27.586C92.887 25.786 93.438 23.968 94.044 22.169C95.035 22.187 96.027 22.169 97 22.169C95.898 25.089 94.796 27.989 93.713 30.909C93.64 32.69 93.713 34.489 93.676 36.271H90.776V31.368C90.812 30.891 90.573 30.45 90.408 30.009C89.435 27.402 88.443 24.776 87.452 22.169Z" fill="#011F44"/>
</svg>
