<svg width="120" height="41" viewBox="0 0 120 41" fill="none" xmlns="http://www.w3.org/2000/svg">
<path fill-rule="evenodd" clip-rule="evenodd" d="M76.428 26.875C79.537 26.875 80.908 25.208 80.908 23.281C80.908 18.974 74.171 20.311 74.171 18.141C74.171 17.29 74.935 16.699 76.116 16.699C77.332 16.699 78.564 17.116 79.484 18.036L80.631 16.526C79.571 15.484 78.095 14.893 76.307 14.893C73.754 14.893 72.087 16.369 72.087 18.297C72.087 22.551 78.824 21.041 78.824 23.472C78.824 24.253 78.182 25.069 76.514 25.069C75.8249 25.0682 75.1434 24.9242 74.5129 24.6462C73.8823 24.3682 73.3164 23.9622 72.851 23.454L71.705 25.034C72.747 26.111 74.292 26.875 76.428 26.875ZM83.635 17.255C84.26 17.255 84.764 16.751 84.764 16.126C84.764 15.501 84.26 14.997 83.634 14.997C83.01 14.997 82.506 15.501 82.506 16.127C82.506 16.751 83.01 17.255 83.635 17.255ZM84.538 26.667V18.279H82.714V26.667H84.538ZM90.32 30.07C88.896 30.07 87.837 29.758 86.795 28.82L87.645 27.5C88.341 28.282 89.209 28.577 90.32 28.577C91.519 28.577 92.804 28.021 92.804 26.233V25.278C92.161 26.128 91.206 26.684 90.112 26.684C87.976 26.684 86.396 25.139 86.396 22.378C86.396 19.651 87.941 18.071 90.112 18.071C91.172 18.071 92.126 18.54 92.804 19.443V18.279H94.627V26.233C94.627 29.254 92.369 30.07 90.32 30.07ZM90.65 25.052C91.501 25.052 92.387 24.548 92.804 23.94V20.797C92.387 20.19 91.501 19.686 90.65 19.686C89.192 19.686 88.271 20.763 88.271 22.378C88.271 23.992 89.19 25.052 90.65 25.052ZM104.49 26.667V20.763C104.49 19.043 103.587 18.071 101.781 18.071C100.462 18.071 99.368 18.748 98.812 19.408V18.28H96.99V26.668H98.813V20.798C99.247 20.243 100.046 19.687 100.966 19.687C101.991 19.687 102.668 20.104 102.668 21.423V26.668H104.491L104.49 26.667ZM113.815 26.667H111.992V25.747C111.367 26.476 110.377 26.875 109.265 26.875C107.911 26.875 106.366 25.937 106.366 24.097C106.366 22.152 107.894 21.353 109.265 21.353C110.412 21.353 111.367 21.718 111.992 22.43V21.18C111.992 20.207 111.176 19.617 110.03 19.617C109.092 19.617 108.258 19.964 107.547 20.693L106.782 19.425C107.755 18.488 108.971 18.071 110.308 18.071C112.183 18.071 113.815 18.852 113.815 21.093V26.667ZM109.995 25.625C110.777 25.625 111.558 25.33 111.992 24.757V23.47C111.558 22.897 110.777 22.602 109.995 22.602C108.971 22.602 108.189 23.21 108.189 24.113C108.189 25.033 108.971 25.623 109.995 25.623V25.625ZM118 26.667V15.084H116.177V26.667H118ZM44.537 26.875C41.116 26.875 38.789 24.305 38.789 20.885C38.789 17.463 41.116 14.893 44.537 14.893C47.957 14.893 50.302 17.463 50.302 20.884C50.302 24.305 47.958 26.875 44.537 26.875ZM44.537 25.59C47.124 25.59 48.809 23.576 48.809 20.884C48.809 18.175 47.124 16.178 44.537 16.178C41.932 16.178 40.282 18.175 40.282 20.884C40.282 23.576 41.932 25.59 44.537 25.59ZM59.059 26.667V20.78C59.059 18.957 58.139 18.071 56.402 18.071C55.134 18.071 53.988 18.783 53.398 19.495V18.279H52.095V26.667H53.398V20.537C53.901 19.86 54.856 19.235 55.881 19.235C57.01 19.235 57.774 19.686 57.774 21.18V26.667H59.059ZM65.089 26.875C62.589 26.875 60.8 25.087 60.8 22.465C60.8 20.033 62.536 18.071 64.933 18.071C67.468 18.071 68.962 20.051 68.962 22.569V22.899H62.189C62.293 24.479 63.387 25.799 65.193 25.799C65.6769 25.8011 66.1564 25.707 66.6037 25.5221C67.0509 25.3372 67.4569 25.0652 67.798 24.722L68.423 25.572C67.573 26.406 66.443 26.875 65.089 26.875ZM67.677 21.926C67.659 20.693 66.826 19.148 64.915 19.148C63.127 19.148 62.241 20.658 62.172 21.926H67.677ZM19.73 29.628C23.01 28.475 25.371 25.385 25.371 21.75C25.371 17.133 21.575 13.378 16.909 13.378C12.243 13.378 8.447 17.133 8.447 21.75C8.447 25.678 11.2 28.971 14.894 29.868V30.689C10.746 29.779 7.641 26.128 7.641 21.749C7.641 16.686 11.791 12.581 16.909 12.581C22.027 12.581 26.177 16.686 26.177 21.75C26.177 25.839 23.467 29.297 19.73 30.477V29.628ZM16.91 17.365C14.465 17.365 12.477 19.331 12.477 21.75C12.477 23.448 13.464 24.912 14.894 25.64V26.526C13.003 25.746 11.671 23.904 11.671 21.75C11.671 18.887 14.016 16.567 16.909 16.567C19.802 16.567 22.147 18.887 22.147 21.75C22.147 23.582 21.18 25.184 19.73 26.105V25.113C20.71 24.309 21.341 23.105 21.341 21.75C21.341 19.331 19.354 17.365 16.91 17.365ZM2 21.75C2 26.929 4.703 31.476 8.785 34.107C9.20907 33.8356 9.64627 33.5853 10.095 33.357C10.7279 33.0344 11.3833 32.758 12.056 32.53C12.5385 32.3653 13.0292 32.2255 13.526 32.111C13.9778 32.005 14.4343 31.9202 14.894 31.857C15.162 31.83 15.429 31.797 15.7 31.777V22.944H14.894V21.35H18.924V31.856C21.0998 32.1514 23.1846 32.9193 25.032 34.106C29.115 31.476 31.818 26.929 31.818 21.75C31.818 13.604 25.143 7 16.91 7C8.675 7 2 13.604 2 21.75Z" fill="#011F44"/>
</svg>
