<svg  viewBox="0 0 154 100" fill="none" xmlns="http://www.w3.org/2000/svg">
<g id="undraw_gift_re_qr17 (1) 1" clip-path="url(#clip0_584_4683)">
<path id="Path 438" d="M7.48756 92.1149C8.13083 92.341 8.8215 92.3977 9.49302 92.2794C10.1645 92.1611 10.7943 91.8719 11.3216 91.4395C12.6644 90.3124 13.0856 88.456 13.428 86.7366L14.4413 81.6509L12.3199 83.1116C10.7943 84.162 9.23434 85.2462 8.17808 86.7677C7.12182 88.2892 6.661 90.3663 7.50943 92.0127" fill="#E6E6E6"/>
<path id="Path 439" d="M7.81511 98.6262C7.54811 96.6809 7.27339 94.7105 7.46113 92.7444C7.62751 90.9982 8.16025 89.293 9.24483 87.8943C9.82052 87.1534 10.521 86.5186 11.3149 86.0184C11.5218 85.8878 11.7124 86.2158 11.5063 86.3459C10.1327 87.2139 9.07024 88.4958 8.47213 90.0066C7.81157 91.6866 7.70551 93.5181 7.81929 95.3028C7.88806 96.3821 8.03421 97.4543 8.18098 98.5252C8.19257 98.5736 8.18534 98.6247 8.16074 98.668C8.13615 98.7113 8.09603 98.7436 8.0485 98.7585C8.00001 98.7715 7.94832 98.7649 7.90466 98.7401C7.86099 98.7153 7.82886 98.6743 7.81525 98.626L7.81511 98.6262Z" fill="#F2F2F2"/>
<path id="Path 442" d="M9.737 95.505C10.0128 95.9244 10.3921 96.2657 10.8381 96.496C11.2842 96.7263 11.782 96.8378 12.2837 96.8198C13.5732 96.7586 14.6478 95.859 15.615 95.0046L18.4766 92.4781L16.5828 92.3874C15.2208 92.3222 13.8237 92.261 12.5265 92.6815C11.2293 93.1019 10.033 94.1123 9.79578 95.4551" fill="#E6E6E6"/>
<path id="Path 443" d="M7.06037 99.7444C8.34584 97.4699 9.83674 94.9421 12.501 94.1341C13.2417 93.9103 14.0184 93.8301 14.7892 93.8979C15.0322 93.9188 14.9715 94.2933 14.7291 94.2724C13.4369 94.1652 12.1473 94.5064 11.0772 95.2386C10.0475 95.9395 9.24572 96.9139 8.56721 97.9472C8.15153 98.5802 7.77922 99.24 7.4069 99.8989C7.28793 100.11 6.94002 99.9574 7.06037 99.7444Z" fill="#F2F2F2"/>
<path id="Vector" d="M96.775 51.7266H40.3698V99.7693H96.775V51.7266Z" fill="white"/>
<path id="Vector_2" d="M96.9389 99.9337H40.2059V51.563H96.9389V99.9337ZM40.5338 99.6057H96.611V51.8909H40.5338V99.6057Z" fill="#3F3D56"/>
<path id="Vector_3" d="M75.6231 61.0732H61.5218V99.7698H75.6231V61.0732Z" fill="#6C63FF"/>
<path id="Vector_4" d="M75.6231 61.0732H61.5218V99.7698H75.6231V61.0732Z" fill="#6C63FF"/>
<path id="Vector_5" opacity="0.2" d="M40.5338 55.252V63.0467L96.7749 66.6478L96.6092 57.0297L40.5338 55.252Z" fill="black"/>
<path id="Vector_6" d="M100.054 47.2998H37.0905V61.0732H100.054V47.2998Z" fill="white"/>
<path id="Vector_7" d="M100.218 61.237H36.9265V47.1357H100.218V61.237ZM37.2544 60.9091H99.8904V47.4637H37.2544V60.9091Z" fill="#3F3D56"/>
<path id="Vector_8" d="M75.6231 45.9878H61.5218V60.9089H75.6231V45.9878Z" fill="#6C63FF"/>
<path id="Vector_9" d="M67.0626 32.978C70.7849 38.4958 67.2778 47.3704 67.2778 47.3704C67.2778 47.3704 57.7356 47.2989 54.0133 41.7811C50.291 36.2633 53.7981 27.3887 53.7981 27.3887C53.7981 27.3887 63.3403 27.4602 67.0626 32.978Z" fill="#6C63FF"/>
<path id="Vector_10" d="M68.7705 32.978C65.0481 38.4958 68.5553 47.3704 68.5553 47.3704C68.5553 47.3704 78.0974 47.2989 81.8198 41.7811C85.5421 36.2633 82.035 27.3887 82.035 27.3887C82.035 27.3887 72.4928 27.4602 68.7705 32.978Z" fill="#6C63FF"/>
<path id="Vector_11" d="M58.7343 37.1336C59.5493 37.1336 60.21 36.4729 60.21 35.6578C60.21 34.8428 59.5493 34.1821 58.7343 34.1821C57.9193 34.1821 57.2586 34.8428 57.2586 35.6578C57.2586 36.4729 57.9193 37.1336 58.7343 37.1336Z" fill="#3F3D56"/>
<path id="Vector_12" d="M67.5886 52.0549C68.4036 52.0549 69.0643 51.3942 69.0643 50.5792C69.0643 49.7642 68.4036 49.1035 67.5886 49.1035C66.7736 49.1035 66.1129 49.7642 66.1129 50.5792C66.1129 51.3942 66.7736 52.0549 67.5886 52.0549Z" fill="#3F3D56"/>
<path id="Vector_13" d="M67.5886 84.3567C68.4036 84.3567 69.0643 83.696 69.0643 82.881C69.0643 82.066 68.4036 81.4053 67.5886 81.4053C66.7736 81.4053 66.1129 82.066 66.1129 82.881C66.1129 83.696 66.7736 84.3567 67.5886 84.3567Z" fill="#3F3D56"/>
<path id="Vector_14" d="M62.6695 42.0526C63.2129 42.0526 63.6534 41.6121 63.6534 41.0688C63.6534 40.5254 63.2129 40.085 62.6695 40.085C62.1262 40.085 61.6857 40.5254 61.6857 41.0688C61.6857 41.6121 62.1262 42.0526 62.6695 42.0526Z" fill="#3F3D56"/>
<path id="Vector_15" d="M77.4267 33.6903C77.97 33.6903 78.4105 33.2498 78.4105 32.7065C78.4105 32.1631 77.97 31.7227 77.4267 31.7227C76.8834 31.7227 76.4429 32.1631 76.4429 32.7065C76.4429 33.2498 76.8834 33.6903 77.4267 33.6903Z" fill="#3F3D56"/>
<path id="Vector_16" d="M71.0319 56.8099C71.5753 56.8099 72.0157 56.3694 72.0157 55.8261C72.0157 55.2828 71.5753 54.8423 71.0319 54.8423C70.4886 54.8423 70.0481 55.2828 70.0481 55.8261C70.0481 56.3694 70.4886 56.8099 71.0319 56.8099Z" fill="#3F3D56"/>
<path id="Vector_17" d="M65.1291 69.5995C65.6724 69.5995 66.1129 69.159 66.1129 68.6156C66.1129 68.0723 65.6724 67.6318 65.1291 67.6318C64.5857 67.6318 64.1453 68.0723 64.1453 68.6156C64.1453 69.159 64.5857 69.5995 65.1291 69.5995Z" fill="#3F3D56"/>
<path id="Vector_18" d="M70.2121 74.0267C70.7554 74.0267 71.1959 73.5862 71.1959 73.0429C71.1959 72.4995 70.7554 72.0591 70.2121 72.0591C69.6688 72.0591 69.2283 72.4995 69.2283 73.0429C69.2283 73.5862 69.6688 74.0267 70.2121 74.0267Z" fill="#3F3D56"/>
<path id="Vector_19" d="M69.0643 92.555C69.6077 92.555 70.0481 92.1146 70.0481 91.5712C70.0481 91.0279 69.6077 90.5874 69.0643 90.5874C68.521 90.5874 68.0805 91.0279 68.0805 91.5712C68.0805 92.1146 68.521 92.555 69.0643 92.555Z" fill="#3F3D56"/>
<path id="Vector_20" d="M129.738 97.9584L127.939 97.9582L127.083 91.0181L129.738 91.0182L129.738 97.9584Z" fill="#FFB7B7"/>
<path id="Vector_21" d="M130.197 99.7023L124.395 99.7021V99.6287C124.395 99.0298 124.633 98.4555 125.057 98.032C125.48 97.6086 126.055 97.3706 126.653 97.3706L130.197 97.3707L130.197 99.7023Z" fill="#2F2E41"/>
<path id="Vector_22" d="M134.133 97.9584L135.932 97.9582L136.788 91.0181L134.132 91.0182L134.133 97.9584Z" fill="#FFB7B7"/>
<path id="Vector_23" d="M133.674 97.3707L137.217 97.3706C137.816 97.3706 138.391 97.6086 138.814 98.032C139.238 98.4555 139.475 99.0298 139.476 99.6287V99.7021L133.674 99.7023L133.674 97.3707Z" fill="#2F2E41"/>
<path id="Vector_24" d="M129.338 43.7234C130.111 42.168 129.477 40.2806 127.921 39.5077C126.366 38.7349 124.478 39.3694 123.705 40.9248C122.933 42.4803 123.567 44.3677 125.123 45.1405C126.678 45.9133 128.565 45.2789 129.338 43.7234Z" fill="#FFB7B7"/>
<path id="Vector_25" d="M124.206 63.9585C124.206 63.9585 123.213 68.0964 123.71 70.0827C124.206 72.0689 125.696 85.6414 125.696 85.6414L126.689 96.4001L130.661 96.7312L130.165 84.1518L130.661 73.2275L133.475 83.8207V96.4376L137.688 96.6032L137.779 80.1793C137.779 80.1793 138.11 67.2689 135.958 65.6137C133.806 63.9585 133.475 63.6274 133.475 63.6274L124.206 63.9585Z" fill="#2F2E41"/>
<path id="Vector_26" d="M130.203 45.7515L133.972 47.7377L134.468 64.9516C134.468 64.9516 132.317 63.6275 129.006 65.2827C125.696 66.9378 123.544 65.7792 123.544 65.7792L125.53 58.3309L124.703 48.3998L125.886 47.3254L130.203 45.7515Z" fill="#CBCBCB"/>
<path id="Vector_27" d="M125.887 47.0125L125.199 47.5726C125.199 47.5726 120.896 49.7243 120.73 51.214L123.71 59.3244C123.71 59.3244 124.537 61.1451 123.875 61.8072C123.213 62.4693 122.551 64.1244 122.716 64.952C122.882 65.7796 121.723 69.2555 123.047 69.2555C124.372 69.2555 127.516 61.3106 127.351 58.1658C127.185 55.0209 127.071 46.7834 125.887 47.0125Z" fill="#2F2E41"/>
<path id="Vector_28" d="M128.78 45.9383L130.296 45.686C130.296 45.686 135.924 47.1757 136.751 49.6585L134.434 55.4516C134.434 55.4516 136.089 66.0448 135.593 66.0448H135.096C135.096 66.0448 136.42 67.0379 135.593 67.369C134.765 67.7 132.779 70.3483 132.282 69.1897C131.786 68.0311 128.806 54.293 129.137 51.3137C129.468 48.3343 128.486 46.2504 128.78 45.9383Z" fill="#2F2E41"/>
<path id="Vector_29" d="M129.438 39.2451L129.585 38.9486L128.844 38.5804C128.844 38.5804 128.027 37.25 126.547 37.6239C125.068 37.9977 124.402 38.2215 124.402 38.2215L123.663 38.5934L124.034 38.9626L123.368 39.1864L123.813 39.4073L123.295 39.7047L123.574 41.2293C123.574 41.2293 124.036 40.073 124.926 40.5148C125.815 40.9567 127.442 40.2864 127.442 40.2864L128.855 43.0217C128.855 43.0217 129.147 42.0628 129.667 42.3185C129.667 42.3185 130.995 40.2034 129.438 39.2451Z" fill="#2F2E41"/>
<path id="Vector_30" d="M134.042 68.2889C133.96 68.0892 133.923 67.874 133.933 67.6585C133.944 67.443 134.001 67.2324 134.102 67.0415C134.202 66.8507 134.344 66.6841 134.515 66.5537C134.687 66.4233 134.886 66.3322 135.097 66.2868L135.734 61.0811L137.81 62.8467L136.886 67.5194C136.939 67.8788 136.859 68.2451 136.659 68.5489C136.46 68.8527 136.157 69.0728 135.806 69.1677C135.455 69.2625 135.082 69.2254 134.757 69.0635C134.432 68.9015 134.177 68.6259 134.042 68.2889Z" fill="#FFB7B7"/>
<path id="Vector_31" d="M125.162 67.9306C125.222 67.7234 125.236 67.5056 125.203 67.2924C125.17 67.0792 125.091 66.8759 124.97 66.6967C124.85 66.5176 124.692 66.367 124.507 66.2555C124.323 66.1441 124.116 66.0745 123.901 66.0517L122.716 60.9429L120.838 62.9187L122.252 67.4672C122.238 67.8301 122.357 68.1858 122.587 68.4668C122.817 68.7477 123.143 68.9344 123.501 68.9916C123.86 69.0487 124.227 68.9723 124.533 68.7767C124.84 68.5812 125.063 68.2801 125.162 67.9306Z" fill="#FFB7B7"/>
<path id="Vector_32" d="M134.122 48.3097C134.122 48.3097 136.273 47.4821 136.936 49.9649C137.598 52.4476 138.425 57.4132 138.425 57.4132C138.466 60.1744 138.32 60.1744 138.425 62.8753L137.929 65.3581L135.115 65.0271L135.238 58.7067L133.791 52.2821L134.122 48.3097Z" fill="#2F2E41"/>
<path id="Vector_33" d="M122.22 50.2207L121.2 50.3298C121.2 50.3298 120.234 51.0483 120.234 52.7035C120.234 54.3587 120.068 59.3242 120.068 59.3242C120.068 59.3242 119.974 59.4404 120.73 63.6277C121.099 65.6687 121.735 66.6318 121.735 66.6318L123.79 64.7239L123.544 59.8208L124.206 57.1725L122.22 50.2207Z" fill="#2F2E41"/>
<path id="Vector_34" d="M153.081 99.9334H0.918653C0.875166 99.9334 0.83346 99.9161 0.80271 99.8854C0.77196 99.8546 0.754684 99.8129 0.754684 99.7694C0.754684 99.726 0.77196 99.6842 0.80271 99.6535C0.83346 99.6227 0.875166 99.6055 0.918653 99.6055H153.081C153.125 99.6055 153.167 99.6227 153.197 99.6535C153.228 99.6842 153.245 99.726 153.245 99.7694C153.245 99.8129 153.228 99.8546 153.197 99.8854C153.167 99.9161 153.125 99.9334 153.081 99.9334Z" fill="#3F3D56"/>
<path id="Vector_35" d="M38.5738 51.1964C40.5685 51.1964 42.1856 49.5793 42.1856 47.5845C42.1856 45.5897 40.5685 43.9727 38.5738 43.9727C36.579 43.9727 34.9619 45.5897 34.9619 47.5845C34.9619 49.5793 36.579 51.1964 38.5738 51.1964Z" fill="#FFB8B8"/>
<path id="Vector_36" d="M37.2697 68.9565C37.2242 68.9565 37.1785 68.9545 37.1326 68.9504C36.9055 68.9315 36.6849 68.8647 36.4853 68.7546C36.2858 68.6444 36.1117 68.4933 35.9746 68.3112C35.8375 68.1291 35.7404 67.9201 35.6897 67.6979C35.639 67.4756 35.6359 67.2452 35.6805 67.0216C35.691 66.9697 35.7043 66.9184 35.7202 66.8678L30.3894 60.5631C30.2157 60.356 30.1134 60.0985 30.0976 59.8287C30.0819 59.5589 30.1535 59.2912 30.3019 59.0654L30.3116 59.0536L35.11 54.3222C35.3719 54.0639 35.7258 53.9203 36.0936 53.9229C36.4615 53.9255 36.8132 54.0741 37.0715 54.3361C37.3298 54.598 37.4734 54.9518 37.4708 55.3197C37.4682 55.6875 37.3196 56.0393 37.0577 56.2976C37.0517 56.3035 37.0456 56.3094 37.0395 56.3152L33.5642 59.6191L37.3687 65.7254C37.4408 65.7292 37.5125 65.738 37.5833 65.7518C37.9769 65.8304 38.3272 66.0523 38.5663 66.3747C38.8053 66.697 38.9161 67.0967 38.877 67.4961C38.8379 67.8955 38.6518 68.2661 38.3547 68.536C38.0577 68.8059 37.671 68.9557 37.2697 68.9565Z" fill="#FFB8B8"/>
<path id="Vector_37" d="M44.5224 97.8523H46.3254L47.183 90.8984L44.5221 90.8986L44.5224 97.8523Z" fill="#FFB8B8"/>
<path id="Vector_38" d="M44.0626 97.2638L47.6131 97.2637C48.2132 97.2637 48.7889 97.502 49.2132 97.9263C49.6375 98.3506 49.8759 98.9261 49.876 99.5262V99.5998L44.0627 99.6001L44.0626 97.2638Z" fill="#2F2E41"/>
<path id="Vector_39" d="M26.6028 95.3599L28.152 96.2823L32.4467 90.746L30.1605 89.3848L26.6028 95.3599Z" fill="#FFB8B8"/>
<path id="Vector_40" d="M26.5089 94.6187L29.5596 96.435C30.0752 96.742 30.4478 97.2414 30.5953 97.823C30.7429 98.4047 30.6533 99.0212 30.3463 99.5368L30.3086 99.6L25.3137 96.626L26.5089 94.6187Z" fill="#2F2E41"/>
<path id="Vector_41" d="M46.7508 95.3962H44.732C44.5685 95.3964 44.4107 95.3361 44.2892 95.2268C44.1677 95.1174 44.091 94.9669 44.074 94.8044L42.0387 75.6728C42.0335 75.6246 42.0127 75.5795 41.9794 75.5444C41.946 75.5092 41.9021 75.486 41.8543 75.4784C41.8064 75.4707 41.7574 75.479 41.7148 75.5019C41.6721 75.5248 41.6382 75.5612 41.6183 75.6053L37.9466 83.7355L31.4461 94.3353C31.362 94.4712 31.2317 94.5722 31.0792 94.6199C30.9266 94.6676 30.762 94.6588 30.6155 94.595L28.0186 93.4524C27.9327 93.4146 27.8558 93.359 27.7931 93.2892C27.7304 93.2195 27.6832 93.1372 27.6547 93.0478C27.6261 92.9584 27.6169 92.864 27.6277 92.7708C27.6384 92.6776 27.6689 92.5877 27.717 92.5072L33.6927 82.5013L35.5254 74.0708C34.949 70.4148 37.4201 64.9793 37.4451 64.9248L37.4574 64.8982L44.264 62.2378L44.2981 62.2796C46.9825 71.0886 48.6182 80.5686 47.4104 94.7898C47.3955 94.9548 47.3197 95.1084 47.1978 95.2205C47.0758 95.3326 46.9165 95.3952 46.7508 95.3962Z" fill="#2F2E41"/>
<path id="Vector_42" d="M37.1832 65.7893L37.1515 65.7227C37.1363 65.6908 35.6228 62.4986 34.4561 59.0869C34.2319 58.4271 34.1471 57.728 34.2072 57.0338C34.2672 56.3395 34.4708 55.6653 34.805 55.0539C35.1436 54.4361 35.6067 53.8954 36.1652 53.466C36.7236 53.0365 37.3652 52.7278 38.0492 52.5592C39.2366 52.2746 40.4868 52.4261 41.5719 52.986C42.6571 53.5459 43.505 54.477 43.9611 55.6097C44.8866 57.9239 44.5916 60.3941 44.3141 62.3367L44.3085 62.3757L44.2731 62.3926L37.1832 65.7893Z" fill="#6C63FF"/>
<path id="Vector_43" d="M42.953 45.544H37.2178V43.044C38.4767 42.5439 39.7085 42.1186 40.4531 43.044C41.1161 43.044 41.752 43.3074 42.2208 43.7763C42.6896 44.2451 42.953 44.881 42.953 45.544Z" fill="#2F2E41"/>
<path id="Vector_44" d="M36.9003 42.603C33.4717 42.603 32.512 46.9007 32.512 49.3252C32.512 50.6773 33.1235 51.1609 34.0844 51.3245L34.4238 49.5147L35.2186 51.4024C35.4885 51.4038 35.772 51.3985 36.066 51.3931L36.3355 50.8382L36.9364 51.3831C39.3433 51.3867 41.2885 51.7376 41.2885 49.3252C41.2885 46.9007 40.4469 42.603 36.9003 42.603Z" fill="#2F2E41"/>
<path id="Vector_45" d="M52.1402 47.4128C52.162 47.4527 52.1822 47.4938 52.2007 47.536C52.2929 47.7444 52.3401 47.97 52.3391 48.1979C52.3381 48.4259 52.289 48.6511 52.1949 48.8587C52.1008 49.0663 51.9639 49.2517 51.7932 49.4028C51.6225 49.5538 51.4217 49.6671 51.2042 49.7351C51.1536 49.7508 51.1022 49.7637 51.0502 49.774L48.0731 57.4749C47.9747 57.7266 47.7977 57.9399 47.5685 58.0831C47.3393 58.2262 47.07 58.2917 46.8006 58.2697L46.7857 58.2669L40.333 56.3244C39.9811 56.218 39.6858 55.9763 39.512 55.6524C39.3382 55.3284 39.3001 54.9487 39.4061 54.5967C39.5121 54.2447 39.7535 53.9491 40.0773 53.775C40.4011 53.6009 40.7808 53.5624 41.1329 53.6681C41.1409 53.6705 41.149 53.673 41.157 53.6756L45.7226 55.1414L49.2572 48.875C49.226 48.8099 49.1994 48.7428 49.1776 48.674C49.0578 48.291 49.0847 47.8771 49.2529 47.5128C49.4212 47.1485 49.7189 46.8597 50.0881 46.7025C50.4573 46.5453 50.8718 46.531 51.251 46.6622C51.6302 46.7935 51.9471 47.061 52.1402 47.4128Z" fill="#FFB8B8"/>
<path id="Vector_46" d="M109.502 27.8529C107.089 24.6248 102.675 23.8457 100.481 25.4851C98.2869 27.1244 97.7829 31.5791 100.195 34.8072C102.428 37.7951 106.473 38.61 108.701 37.4906C108.694 37.5255 108.694 37.5616 108.7 37.5967L108.826 38.2177C108.835 38.265 108.857 38.3092 108.888 38.3458C108.919 38.3825 108.96 38.4106 109.005 38.4273C109.05 38.4441 109.099 38.4489 109.147 38.4415C109.195 38.4341 109.24 38.4146 109.278 38.3848L110.341 37.5538C110.379 37.5241 110.409 37.4851 110.428 37.4406C110.447 37.3961 110.454 37.3475 110.449 37.2995C110.443 37.2515 110.426 37.2056 110.398 37.1662C110.37 37.1269 110.332 37.0953 110.289 37.0746L109.717 36.8024C109.696 36.7934 109.675 36.7868 109.654 36.7827C111.371 34.967 111.739 30.8473 109.502 27.8529Z" fill="#CCCCCC"/>
<path id="Vector_47" d="M104.225 26.6341C105.405 26.8215 106.468 27.4548 107.195 28.4033C107.921 29.3517 108.256 30.5429 108.13 31.731C108.104 32.0031 108.529 32.0013 108.555 31.731C108.676 30.4504 108.309 29.1712 107.527 28.15C106.745 27.1287 105.606 26.4408 104.338 26.2242C104.071 26.1787 103.956 26.5883 104.225 26.6341Z" fill="white"/>
<path id="Vector_48" d="M28.9897 31.9017C31.0986 28.4678 30.192 24.0774 27.8582 22.6441C25.5245 21.2109 21.1987 22.3879 19.0898 25.8218C17.1378 29.0003 17.8745 33.0604 19.7378 34.7175C19.7026 34.7238 19.669 34.7366 19.6387 34.7555L19.108 35.1016C19.0675 35.128 19.0345 35.1643 19.012 35.207C18.9895 35.2498 18.9783 35.2975 18.9795 35.3458C18.9807 35.3941 18.9942 35.4413 19.0187 35.4829C19.0432 35.5245 19.078 35.5592 19.1197 35.5835L20.2849 36.2651C20.3266 36.2895 20.3738 36.3028 20.4221 36.3039C20.4704 36.3049 20.5181 36.2935 20.5608 36.2709C20.6035 36.2482 20.6396 36.215 20.6659 36.1745C20.6921 36.1339 20.7075 36.0873 20.7107 36.0391L20.7523 35.4069C20.7532 35.3848 20.7516 35.3627 20.7474 35.3411C23.069 36.2665 27.0334 35.0871 28.9897 31.9017Z" fill="#CCCCCC"/>
<path id="Vector_49" d="M28.1735 26.5482C28.4351 27.7139 28.2392 28.9356 27.6261 29.9611C27.0131 30.9866 26.0298 31.7376 24.8791 32.0591C24.6166 32.1355 24.7753 32.53 25.036 32.454C26.271 32.0941 27.3242 31.2806 27.9844 30.1767C28.6447 29.0728 28.8632 27.7601 28.5961 26.5018C28.5395 26.2364 28.1165 26.2808 28.1735 26.5482Z" fill="white"/>
<path id="Vector_50" d="M134.432 7.03868C134.256 3.01276 131.046 -0.116517 128.31 0.00333045C125.574 0.123178 122.649 3.52117 122.826 7.54708C122.989 11.2736 125.873 14.2244 128.345 14.5535C128.32 14.5783 128.299 14.6078 128.284 14.6404L128.039 15.2244C128.02 15.2689 128.013 15.3175 128.018 15.3655C128.023 15.4135 128.041 15.4594 128.069 15.4987C128.097 15.5381 128.135 15.5696 128.178 15.5903C128.222 15.611 128.27 15.6203 128.318 15.6171L129.665 15.5291C129.713 15.526 129.76 15.5106 129.801 15.4843C129.841 15.4581 129.874 15.422 129.897 15.3793C129.92 15.3367 129.931 15.2889 129.93 15.2406C129.929 15.1923 129.916 15.1451 129.891 15.1034L129.572 14.5563C129.56 14.5375 129.546 14.5201 129.531 14.5046C131.972 13.9708 134.596 10.7733 134.432 7.03868Z" fill="#6C63FF"/>
<path id="Vector_51" d="M130.758 3.06103C131.627 3.88021 132.149 5.00203 132.216 6.19493C132.282 7.38783 131.888 8.56075 131.115 9.47158C130.941 9.68191 131.293 9.91982 131.467 9.71086C132.288 8.721 132.705 7.45718 132.633 6.17286C132.562 4.88853 132.008 3.67867 131.082 2.7859C130.886 2.59769 130.561 2.87143 130.758 3.06103Z" fill="white"/>
<path id="Vector_52" d="M109.265 18.6611C108.21 18.5947 107.186 18.2793 106.277 17.7407C105.368 17.2021 104.599 16.4558 104.034 15.5628C103.876 15.3097 103.669 15.0315 103.779 14.7199C103.817 14.6004 103.895 14.4974 103.999 14.4278C104.103 14.3581 104.228 14.3259 104.353 14.3364C104.676 14.3757 104.885 14.6919 104.925 14.9948C104.97 15.3385 104.727 15.6083 104.428 15.736C103.697 16.048 102.959 15.5658 102.363 15.181C101.005 14.3041 99.5119 13.5111 97.8669 13.4111C96.3448 13.3187 94.7126 13.9155 93.866 15.2354C93.7179 15.4663 94.0857 15.6797 94.2331 15.4499C95.0727 14.1409 96.77 13.6708 98.2458 13.8731C99.1253 14.0119 99.9745 14.3002 100.757 14.7255C101.162 14.9361 101.556 15.1694 101.941 15.4147C102.308 15.6707 102.697 15.8936 103.103 16.0807C103.78 16.359 104.677 16.3373 105.15 15.6966C105.592 15.0988 105.251 14.1037 104.512 13.9357C104.35 13.9037 104.183 13.9125 104.025 13.9612C103.868 14.0098 103.724 14.0969 103.609 14.2145C103.493 14.3322 103.408 14.4767 103.362 14.6352C103.315 14.7937 103.309 14.9612 103.344 15.1226C103.417 15.4746 103.682 15.8191 103.888 16.1068C104.504 16.974 105.307 17.6918 106.238 18.2074C107.168 18.7231 108.203 19.0233 109.265 19.0862C109.538 19.0997 109.538 18.6746 109.265 18.6611Z" fill="#CCCCCC"/>
</g>
<defs>
<clipPath id="clip0_584_4683">
<rect width="152.491" height="100" fill="white" transform="translate(0.754684)"/>
</clipPath>
</defs>
</svg>
