<svg width="120" height="41" viewBox="0 0 120 41" fill="none" xmlns="http://www.w3.org/2000/svg">
<path d="M45.733 13.914H50.338L53.833 23.289H53.917L57.241 13.914H61.589L56.13 27.764H51.616M28.936 17.375H24.672V22.019C24.672 22.778 24.756 23.792 25.525 24.299C26.291 24.636 27.144 24.719 27.997 24.55C28.337 24.55 28.679 24.381 28.933 24.212V27.76C28.421 27.93 27.826 28.012 27.314 28.098C24.244 28.436 20.067 27.846 20.067 24.043V17.461H17V13.913H19.983V9.858H24.673V13.913H28.936V17.375ZM40.96 13.913H45.224V27.763H40.96V13.913ZM40.79 10.279C40.705 9.096 41.73 8 43.006 8C44.283 8 45.31 8.928 45.31 10.196V10.279C45.31 11.544 44.203 12.559 43.01 12.476C41.812 12.476 40.788 11.548 40.788 10.279H40.79ZM93.83 20.841C93.83 22.7 94.937 24.303 96.9 24.303C98.86 24.303 99.97 22.7 99.97 20.841C99.97 18.983 98.864 17.38 96.9 17.38C94.94 17.376 93.83 18.983 93.83 20.841ZM89.994 20.841C89.824 17.041 92.807 13.745 96.646 13.576C98.947 13.494 101.081 14.504 102.529 16.28C104.235 18.728 104.489 21.855 103.124 24.558C101.248 27.938 96.984 29.12 93.572 27.261C91.272 25.993 89.823 23.541 89.994 20.841ZM85.389 13.914V15.773H85.305C85.221 15.603 85.051 15.435 84.88 15.266C82.068 12.901 77.375 13.408 75.586 16.7C74.733 18.473 74.479 20.5 74.82 22.445C75.074 24.217 75.757 26.075 77.292 27.089C79.081 28.186 81.215 28.441 83.175 27.679C83.857 27.427 84.452 26.92 84.964 26.327H85.047V27.679C85.131 28.606 84.793 29.451 84.195 30.127C83.001 31.392 80.613 31.309 78.994 30.885C78.141 30.634 77.288 30.295 76.522 29.789L74.392 32.829C75.415 33.589 76.522 34.095 77.717 34.433C80.787 35.192 84.964 35.192 87.352 32.83C88.716 31.478 89.228 29.45 89.228 26.834V13.914H85.389ZM84.365 23.458C83.171 24.724 81.211 24.81 79.93 23.628L79.76 23.458C79.2207 22.7232 78.93 21.8355 78.93 20.924C78.93 20.0125 79.2207 19.1248 79.76 18.39C80.954 17.124 82.914 17.038 84.195 18.22L84.365 18.39C85.475 19.828 85.475 21.938 84.365 23.458C84.877 22.783 83.77 24.048 84.365 23.458ZM30.045 13.913H34.393V16.193H34.477C34.817 15.433 35.413 14.758 36.095 14.251C37.289 13.661 38.654 13.406 39.931 13.744V17.63C39.079 17.378 37.202 17.04 35.925 17.8C35.072 18.306 34.477 18.895 34.477 21.937V27.681H30.129L30.045 13.913ZM65.606 22.274C64.753 22.781 64.158 23.794 64.923 24.639C65.689 25.398 67.053 25.315 67.993 24.977C69.101 24.725 69.87 23.712 69.87 22.612V21.767C69.953 21.767 66.713 21.597 65.606 22.274ZM69.953 26.074C69.442 26.749 68.759 27.339 67.993 27.677C64.923 28.942 60.576 27.677 60.489 23.877C60.489 19.908 64.836 19.147 67.994 19.064H69.954C69.954 18.388 69.699 17.712 69.101 17.291C68.5548 16.8813 67.9011 16.6395 67.2198 16.5949C66.5385 16.5503 65.8589 16.705 65.264 17.04C64.669 17.378 64.158 17.715 63.729 18.222L61.341 15.857C62.107 15.099 63.131 14.592 64.154 14.167C66.0754 13.4948 68.153 13.4074 70.124 13.916C70.9833 14.1546 71.7584 14.6294 72.3614 15.2864C72.9643 15.9435 73.3709 16.7564 73.535 17.633C73.705 18.647 73.789 19.66 73.789 20.673V27.683H69.866L69.953 26.074Z" fill="#011F44"/>
</svg>
