<svg width="120" height="41" viewBox="0 0 120 41" fill="none" xmlns="http://www.w3.org/2000/svg">
<path d="M9.21999 16.1421C11.74 16.1421 14.244 16.1421 16.765 16.1591C17.091 16.1591 17.468 16.2281 17.725 16.3831C18.274 16.7281 18.428 17.2621 18.223 17.9681C18.0293 18.6004 17.8176 19.227 17.588 19.8471C16.714 22.4151 15.788 24.9831 14.878 27.5501C14.518 28.5671 14.004 28.9631 13.078 28.9291C12.29 28.9121 11.895 28.6021 11.604 27.7571C11.141 26.3961 10.694 25.0341 10.249 23.6731C10.198 23.5181 10.129 23.3451 10.078 23.1901C9.95798 22.7771 9.64798 22.6041 9.25498 22.5351C8.84299 22.4661 8.53498 22.6731 8.31098 23.0011C8.19098 23.1911 8.12298 23.4141 8.05398 23.6381C7.64298 24.8621 7.24798 26.0851 6.83698 27.3091C6.75191 27.5801 6.64868 27.845 6.52798 28.1021C6.25398 28.6881 5.77398 28.9291 5.13898 28.9291C4.46998 28.9461 3.97298 28.7221 3.66398 28.1021C3.56198 27.8951 3.45898 27.6881 3.38998 27.4641C2.32698 24.4661 1.34998 21.4321 0.199985 18.4681C-0.382015 16.9681 0.337985 16.0211 1.93298 16.0901C4.36698 16.2281 6.80299 16.1421 9.21999 16.1421ZM22.304 23.2601C22.338 24.6041 23.11 25.7071 24.31 26.1901C25.63 26.7401 26.934 26.5861 28.203 26.0171L28.82 25.7071C29.472 25.3971 30.123 25.5691 30.466 26.1201C30.843 26.7241 30.706 27.5501 30.123 27.9641C29.7936 28.1875 29.4433 28.3784 29.077 28.5341C26.814 29.5501 24.55 29.6021 22.321 28.4301C20.366 27.3961 19.321 25.7241 18.977 23.5351C18.823 22.4851 18.926 21.4671 19.183 20.4851C19.852 18.0211 21.481 16.5391 23.967 15.9871C25.597 15.6251 27.14 15.7971 28.563 16.7111C30.192 17.7621 30.843 19.3651 30.998 21.2091C31.066 22.0531 30.655 22.6391 29.952 23.0361C29.5245 23.2661 29.069 23.4399 28.597 23.5531C26.728 24.0011 24.877 23.9321 23.024 23.4491C22.801 23.3971 22.578 23.3301 22.304 23.2601ZM101.351 23.0701C101.489 25.1211 103.169 26.5511 105.055 26.5171C105.972 26.4986 106.871 26.262 107.679 25.8271C108.725 25.2931 109.599 25.7761 109.737 26.9651C109.771 27.3611 109.685 27.6891 109.308 27.9131C107.627 28.9981 105.793 29.4631 103.838 29.1711C101.934 28.8951 100.323 28.0341 99.208 26.3791C98.282 25.0181 97.939 23.5011 98.076 21.8811C98.248 19.7791 99.088 17.9691 100.923 16.8311C102.946 15.5741 105.124 15.4011 107.302 16.4351C108.862 17.1761 109.651 18.5551 110.028 20.1921C110.148 20.6921 110.148 21.2091 110.217 21.7261C110.32 22.3981 109.702 23.0011 109.016 23.0191H102.243C101.952 23.0361 101.677 23.0531 101.351 23.0701ZM101.506 21.0371C102.535 21.1921 106.359 21.1571 106.976 21.0021C106.942 19.3481 105.998 18.2791 104.507 18.2281C102.912 18.1931 101.592 19.3991 101.506 21.0371ZM67.845 18.4171C68.068 18.1241 68.171 17.9871 68.257 17.8481C69.508 15.9881 72.287 15.2981 74.395 16.1601C75.99 16.8141 76.642 18.1241 76.745 19.7441C76.813 20.9511 76.779 22.1571 76.779 23.3641V27.5851C76.779 28.7571 76.608 28.9121 75.424 28.9121C75.133 28.9121 74.858 28.9301 74.567 28.8951C73.967 28.8431 73.71 28.5681 73.658 27.9651C73.641 27.7411 73.641 27.4991 73.641 27.2751C73.641 25.3451 73.658 23.4321 73.641 21.5021C73.641 21.0201 73.59 20.5201 73.469 20.0541C73.281 19.2441 72.784 18.8141 71.978 18.7441C70.538 18.6241 69.406 19.1411 68.634 20.3821C68.205 21.0721 67.965 21.8291 67.982 22.6571C67.999 24.1561 67.982 25.6381 67.982 27.1371C67.982 27.3961 67.982 27.6541 67.948 27.9131C67.828 28.6711 67.588 28.8781 66.816 28.8951C66.473 28.9121 66.13 28.9121 65.787 28.8951C65.204 28.8611 64.896 28.5851 64.793 28.0161C64.759 27.7921 64.776 27.5511 64.776 27.3261V17.6761C64.776 17.5041 64.759 17.3311 64.776 17.1591C64.844 16.4351 65.153 16.1421 65.856 16.1081C66.165 16.0911 66.491 16.0911 66.799 16.1081C67.451 16.1421 67.777 16.4531 67.828 17.1251C67.879 17.5041 67.845 17.8491 67.845 18.4171ZM59.072 27.0511C58.729 27.4311 58.489 27.7411 58.198 27.9991C56.38 29.7231 53.482 29.6541 51.802 27.8791C50.498 26.4991 50.464 23.7771 52.316 22.4841C53.499 21.6571 54.836 21.2951 56.243 21.1571C57.083 21.0711 57.94 21.0201 58.781 20.9511C58.969 19.6751 58.438 18.8651 57.271 18.5721C56.277 18.3141 55.351 18.5551 54.425 18.8821C54.099 19.0031 53.791 19.1581 53.465 19.2271C52.83 19.3821 52.47 19.1071 52.402 18.4521V18.2791C52.35 16.9351 52.539 16.6251 53.842 16.2461C55.317 15.8151 56.792 15.6601 58.318 15.9701C60.513 16.4181 61.868 18.0041 62.004 20.3131C62.107 22.0361 62.039 23.7601 62.039 25.4831C62.039 26.2591 62.056 27.0341 62.039 27.8091C62.021 28.6191 61.747 28.8951 60.959 28.9291C60.6732 28.9464 60.3867 28.9464 60.101 28.9291C59.449 28.8781 59.175 28.6191 59.124 27.9651C59.089 27.6891 59.089 27.4131 59.072 27.0511ZM58.369 22.9501C57.803 22.9841 57.22 22.9841 56.672 23.0871C56.088 23.2081 55.505 23.3631 54.974 23.6221C54.288 23.9491 53.928 24.6901 54.031 25.3111C54.168 26.0691 54.614 26.5511 55.351 26.7071C55.677 26.7761 56.037 26.8271 56.363 26.7581C57.803 26.4831 58.986 24.9141 58.918 23.4151C58.883 23.0191 58.781 22.9321 58.369 22.9501ZM83.932 15.7631C85.115 15.7981 86.195 16.1081 87.242 16.6251C88.047 17.0211 88.184 17.4351 87.824 18.2101C87.43 19.0901 86.967 19.3131 86.144 18.9691C85.321 18.6241 84.481 18.3141 83.589 18.3991C83.229 18.4341 82.852 18.5381 82.543 18.7271C81.909 19.1241 81.874 19.9511 82.457 20.3991C82.886 20.7261 83.4 20.9331 83.897 21.1401C84.549 21.4161 85.252 21.6051 85.904 21.8981C87.053 22.4331 88.014 23.1561 88.304 24.5181C88.63 26.0521 88.134 27.2921 86.916 28.2231C85.716 29.1361 84.309 29.3601 82.852 29.2401C81.582 29.1201 80.4 28.7231 79.336 27.9821C78.771 27.5851 78.668 27.1891 78.976 26.5861C79.0575 26.4362 79.1494 26.2922 79.251 26.1551C79.714 25.5521 80.022 25.5001 80.743 25.7931C81.4213 26.0902 82.1135 26.3548 82.817 26.5861C83.399 26.7561 84.0212 26.7259 84.584 26.5001C85.492 26.1201 85.681 25.1041 84.858 24.5351C84.326 24.1731 83.675 23.9661 83.092 23.7081C82.286 23.3461 81.446 23.0361 80.692 22.6051C78.976 21.6231 78.462 19.3131 79.748 17.5211C80.348 16.6941 81.24 16.2811 82.183 16.0391C82.749 15.8841 83.349 15.8491 83.932 15.7631ZM91.337 18.8121C89.827 18.4851 89.622 18.2951 89.657 17.3301C89.673 16.4691 89.913 16.2791 91.285 16.0721C91.302 15.8141 91.32 15.5381 91.354 15.2621C91.474 13.8321 92.074 12.6771 93.326 11.9191C94.3789 11.2675 95.604 10.949 96.841 11.0051C97.39 11.0231 97.561 11.1781 97.647 11.6951C97.681 11.8851 97.664 12.0911 97.664 12.2981C97.664 13.4011 97.441 13.6591 96.344 13.7631C95.194 13.8831 94.68 14.4011 94.544 15.5731C94.492 16.0731 94.526 16.1411 95.006 16.1581C95.469 16.1761 95.915 16.1581 96.378 16.1761C97.115 16.1931 97.338 16.4341 97.441 17.2441C97.544 18.0021 97.27 18.4841 96.652 18.6401C96.3474 18.7028 96.0369 18.7317 95.726 18.7261C95.366 18.7431 94.989 18.7261 94.543 18.7261C94.526 19.1061 94.509 19.4161 94.509 19.7091V27.3771C94.509 27.6361 94.526 27.8941 94.492 28.1531C94.44 28.6361 94.217 28.8941 93.737 28.9281C93.257 28.9631 92.76 28.9631 92.28 28.9281C91.714 28.8941 91.457 28.6181 91.405 28.0671C91.371 27.8431 91.388 27.6021 91.388 27.3771V19.7951C91.337 19.4671 91.337 19.1571 91.337 18.8121ZM34.102 18.7961C32.439 18.4521 32.336 18.3661 32.319 17.4001C32.319 16.9181 32.353 16.4351 32.885 16.2631C33.279 16.1431 33.708 16.1251 34.239 16.0561V14.7811C34.239 14.3851 34.222 13.9711 34.256 13.5751C34.291 13.0231 34.445 12.7821 34.994 12.6781C35.457 12.5921 35.954 12.5751 36.434 12.6271C37.069 12.7131 37.292 13.0061 37.326 13.6781C37.36 14.1601 37.326 14.6601 37.326 15.1431V16.0911C37.652 16.1081 37.926 16.1251 38.2 16.1421H39.4C40.378 16.1771 40.858 16.7971 40.652 17.7281C40.55 18.1931 40.309 18.5211 39.812 18.5721C39.452 18.6241 39.075 18.6591 38.715 18.6761C38.286 18.6931 37.875 18.6761 37.395 18.6761C37.36 18.9691 37.325 19.1931 37.325 19.4001V23.7081C37.325 23.9661 37.343 24.2251 37.377 24.4831C37.549 25.3971 38.114 25.9481 39.023 26.1211C39.298 26.1721 39.589 26.2071 39.863 26.2931C40.481 26.4651 40.703 26.7761 40.721 27.4991C40.755 28.2921 40.55 28.6711 39.984 28.8951C39.881 28.9301 39.761 28.9651 39.658 28.9991C37.411 29.5161 34.788 27.9131 34.273 25.6731C34.1578 25.1405 34.0948 24.5979 34.085 24.0531C34.068 22.5881 34.085 21.1231 34.068 19.6581C34.102 19.3991 34.102 19.1241 34.102 18.7961ZM115.43 18.7441C115.567 18.5371 115.705 18.3481 115.825 18.1411C116.425 17.2111 117.179 16.4351 118.294 16.1251C118.517 16.0731 118.74 16.0211 118.963 16.0051C119.58 15.9871 119.923 16.3151 119.974 16.9171C120.009 17.3141 120.009 17.7271 119.974 18.1241C119.94 18.6751 119.614 19.0031 119.048 19.0721C116.853 19.3821 115.636 20.6571 115.516 22.8801C115.43 24.3621 115.43 25.8621 115.396 27.3441C115.396 27.6371 115.396 27.9121 115.362 28.2051C115.31 28.5851 115.07 28.8431 114.693 28.8781C114.161 28.9121 113.613 28.9121 113.064 28.8781C112.652 28.8601 112.395 28.5851 112.309 28.1711C112.275 27.9811 112.275 27.7751 112.275 27.5681V17.4861C112.275 17.3141 112.258 17.1411 112.292 16.9691C112.361 16.4521 112.618 16.1761 113.115 16.1251C113.572 16.0906 114.03 16.0906 114.487 16.1251C114.984 16.1591 115.173 16.4001 115.19 16.9171C115.207 17.4871 115.19 18.0551 115.19 18.6241C115.259 18.6931 115.345 18.7101 115.43 18.7441ZM45.937 19.0721C46.297 18.5031 46.52 18.0721 46.794 17.6761C47.394 16.8661 48.132 16.2801 49.144 16.0731C50.155 15.8661 50.549 16.1591 50.567 17.1761C50.567 17.4691 50.584 17.7451 50.567 18.0381C50.532 18.7961 50.309 19.0201 49.521 19.1061C49.298 19.1231 49.058 19.1411 48.851 19.1921C47.823 19.4161 47.154 20.0881 46.691 21.0021C46.2904 21.7684 46.0788 22.6194 46.074 23.4841V27.3611C46.074 27.5681 46.091 27.7571 46.074 27.9641C46.023 28.6191 45.748 28.8941 45.114 28.9471C44.685 28.9811 44.256 28.9641 43.828 28.9471C43.279 28.9121 43.022 28.7401 42.97 28.1711C42.885 27.3271 42.885 26.4651 42.885 25.6031C42.8678 23.4548 42.8678 21.3064 42.885 19.1581C42.885 18.4171 42.919 17.6761 42.97 16.9351C43.005 16.4871 43.245 16.2281 43.673 16.1941C44.153 16.1591 44.651 16.1421 45.131 16.1941C45.645 16.2451 45.885 16.5211 45.92 17.0381C45.954 17.6411 45.937 18.2791 45.937 19.0721Z" fill="#011F44"/>
</svg>
