<svg width="32" height="33" viewBox="0 0 32 33" fill="none" xmlns="http://www.w3.org/2000/svg">
<g id="YouTube">
<rect y="0.151855" width="32" height="32" rx="16" fill="white"/>
<g id="Group">
<path id="Vector" d="M26.9587 10.6562C26.6951 9.67705 25.9231 8.90504 24.944 8.64143C23.1551 8.15186 15.9999 8.15186 15.9999 8.15186C15.9999 8.15186 8.84464 8.15186 7.05582 8.6226C6.09551 8.88621 5.30467 9.67705 5.04105 10.6562C4.57031 12.445 4.57031 16.1544 4.57031 16.1544C4.57031 16.1544 4.57031 19.8827 5.04105 21.6527C5.30467 22.6318 6.07668 23.4038 7.05582 23.6675C8.86347 24.157 15.9999 24.157 15.9999 24.157C15.9999 24.157 23.1551 24.157 24.944 23.6863C25.9231 23.4227 26.6951 22.6507 26.9587 21.6715C27.4295 19.8827 27.4295 16.1733 27.4295 16.1733C27.4295 16.1733 27.4483 12.445 26.9587 10.6562Z" fill="#272727"/>
<path id="Vector_2" d="M13.7214 19.5815L19.6716 16.1545L13.7214 12.7275V19.5815Z" fill="white"/>
</g>
</g>
</svg>
